<?xml version="1.0" encoding="UTF-8" standalone="no"?>
<!-- Created with Inkscape (http://www.inkscape.org/) -->

<svg
   width="11in"
   height="8.5in"
   viewBox="0 0 279.4 215.9"
   version="1.1"
   id="svg1"
   inkscape:version="1.4 (86a8ad7, 2024-10-11)"
   sodipodi:docname="inecol-logo.svg"
   xmlns:inkscape="http://www.inkscape.org/namespaces/inkscape"
   xmlns:sodipodi="http://sodipodi.sourceforge.net/DTD/sodipodi-0.dtd"
   xmlns="http://www.w3.org/2000/svg"
   xmlns:svg="http://www.w3.org/2000/svg">
  <sodipodi:namedview
     id="namedview1"
     pagecolor="#ffffff"
     bordercolor="#000000"
     borderopacity="0.25"
     inkscape:showpageshadow="2"
     inkscape:pageopacity="0.0"
     inkscape:pagecheckerboard="0"
     inkscape:deskcolor="#d1d1d1"
     inkscape:document-units="mm"
     inkscape:zoom="0.52203984"
     inkscape:cx="398.43702"
     inkscape:cy="561.25984"
     inkscape:window-width="1440"
     inkscape:window-height="830"
     inkscape:window-x="-6"
     inkscape:window-y="-6"
     inkscape:window-maximized="1"
     inkscape:current-layer="layer1" />
  <defs
     id="defs1">
    <clipPath
       clipPathUnits="userSpaceOnUse"
       id="clipPath2">
      <path
         d="M 0,612.283 H 793.701 V 0 H 0 Z"
         transform="translate(-523.81931,-209.1719)"
         id="path2" />
    </clipPath>
    <clipPath
       clipPathUnits="userSpaceOnUse"
       id="clipPath4">
      <path
         d="M 0,612.283 H 793.701 V 0 H 0 Z"
         transform="translate(-203.09361,-351.78211)"
         id="path4" />
    </clipPath>
    <clipPath
       clipPathUnits="userSpaceOnUse"
       id="clipPath6">
      <path
         d="M 0,612.283 H 793.701 V 0 H 0 Z"
         transform="translate(-222.7465,-363.34951)"
         id="path6" />
    </clipPath>
    <clipPath
       clipPathUnits="userSpaceOnUse"
       id="clipPath8">
      <path
         d="M 0,612.283 H 793.701 V 0 H 0 Z"
         transform="translate(-193.7418,-369.60041)"
         id="path8" />
    </clipPath>
    <clipPath
       clipPathUnits="userSpaceOnUse"
       id="clipPath10">
      <path
         d="M 0,612.283 H 793.701 V 0 H 0 Z"
         transform="translate(-474.00891,-293.1872)"
         id="path10" />
    </clipPath>
    <clipPath
       clipPathUnits="userSpaceOnUse"
       id="clipPath12">
      <path
         d="M 0,612.283 H 793.701 V 0 H 0 Z"
         transform="translate(-274.53691,-410.35641)"
         id="path12" />
    </clipPath>
  </defs>
  <g
     inkscape:label="Capa 1"
     inkscape:groupmode="layer"
     id="layer1">
    <g
       id="g309"
       transform="matrix(0.26458333,0,0,0.26458333,-0.29997057,-0.04995152)"
       inkscape:export-filename="inecol-logo.png"
       inkscape:export-xdpi="300"
       inkscape:export-ydpi="300">
      <g
         id="g308">
        <path
           id="path1"
           d="M 0,0 H 14.332 V 2.522 H 2.906 v 8.905 h 10.659 v 2.522 H 2.906 V 22.7 h 11.081 v 2.522 L 0,25.222 Z m -186.076,0 h 2.906 v 25.222 h -2.906 z M 6.724,27.122 Z M 10.744,0 Z M -3.381,25.958 Z M -177.933,17.37 h 1.993 l 11.797,-13.44 -0.022,13.44 h 2.35 V 0 h -2.145 L -175.596,13.364 -175.583,0 h -2.35 z m 19.282,-12.849 c 1.256,-1.703 2.755,-2.554 4.496,-2.554 0.8,0 1.46,0.2 1.984,0.6 0.532,0.401 0.8,0.937 0.8,1.609 0,0.618 -0.183,1.154 -0.549,1.614 -0.358,0.456 -1.213,1.098 -2.563,1.92 -1.222,0.775 -2.261,1.533 -3.113,2.274 -0.838,0.749 -1.26,1.745 -1.26,2.984 0,1.456 0.486,2.601 1.461,3.436 0.975,0.83 2.265,1.247 3.861,1.247 1.443,0 2.733,-0.413 3.875,-1.234 v -2.751 c -0.452,0.439 -1.039,0.835 -1.767,1.192 -0.715,0.362 -1.499,0.545 -2.351,0.545 -0.825,0 -1.498,-0.204 -2.017,-0.613 -0.507,-0.409 -0.763,-0.898 -0.763,-1.473 0,-0.621 0.239,-1.166 0.712,-1.622 0.476,-0.451 1.289,-1.009 2.439,-1.673 1.716,-1.064 2.865,-1.984 3.448,-2.746 0.592,-0.758 0.886,-1.699 0.886,-2.823 0,-1.383 -0.451,-2.52 -1.358,-3.41 -0.907,-0.881 -2.065,-1.324 -3.47,-1.324 -1.861,0 -3.444,0.536 -4.751,1.614 z m 10.882,12.849 h 14.458 v -2.248 h -5.978 V 0 h -2.503 v 15.122 h -5.977 z m 16.987,0 h 2.503 V 0 h -2.503 z m 4.828,0 h 14.458 v -2.248 h -5.978 V 0 h -2.503 v 15.122 h -5.977 z m 16.578,0 h 2.504 V 6.978 c 0,-1.809 0.489,-3.091 1.473,-3.848 0.979,-0.759 2.09,-1.138 3.329,-1.138 1.35,0 2.622,0.244 3.729,1.061 0.962,0.719 1.474,1.911 1.533,3.589 V 7.216 17.37 h 2.503 V 6.82 c 0,-2.312 -0.698,-4.074 -2.094,-5.292 -1.397,-1.204 -3.227,-1.809 -5.497,-1.809 -2.286,0 -4.104,0.601 -5.462,1.796 -1.345,1.201 -2.018,2.896 -2.018,5.097 z m 16.936,0 h 14.458 v -2.248 h -5.977 V 0 h -2.504 v 15.122 h -5.977 z m 16.144,-8.685 c 0,2.474 0.864,4.581 2.593,6.331 1.741,1.758 4.002,2.635 6.79,2.635 2.7,0 4.939,-0.847 6.71,-2.546 1.771,-1.69 2.657,-3.831 2.657,-6.42 0,-2.52 -0.881,-4.649 -2.644,-6.382 -1.754,-1.724 -4.023,-2.584 -6.799,-2.584 -2.72,0 -4.951,0.856 -6.701,2.571 -1.737,1.716 -2.606,3.849 -2.606,6.395 m 2.58,0 c 0,-1.92 0.643,-3.516 1.933,-4.789 1.29,-1.269 2.912,-1.904 4.87,-1.904 1.955,0 3.573,0.639 4.854,1.916 1.29,1.282 1.933,2.874 1.933,4.777 0,1.911 -0.643,3.504 -1.933,4.777 -1.281,1.277 -2.904,1.916 -4.866,1.916 -1.967,0 -3.589,-0.63 -4.871,-1.891 -1.281,-1.251 -1.92,-2.852 -1.92,-4.802 M -43.78,0 v 17.37 h 6.906 c 2.835,0 5.07,-0.855 6.705,-2.571 1.639,-1.703 2.456,-3.742 2.456,-6.114 0,-2.38 -0.855,-4.423 -2.567,-6.126 C -31.982,0.851 -34.184,0 -36.874,0 Z m 2.503,2.248 h 4.164 c 2.022,0 3.662,0.617 4.926,1.848 1.265,1.23 1.895,2.741 1.895,4.538 0,2.056 -0.647,3.649 -1.946,4.781 -1.286,1.137 -2.985,1.707 -5.088,1.707 h -3.951 z m 3.96,16.195 z m -8.43,-0.792 z M -24.672,0 v 17.37 h 9.885 v -2.248 h -7.382 V 9.86 h 7.101 V 7.613 h -7.101 V 2.248 h 7.612 V 0 Z m 4.955,18.443 z M -16.984,0 Z m -9.604,17.651 z m 58.957,-1.46 0.005,-2.729 c -2.048,1.277 -4.041,1.916 -5.978,1.916 -2.014,0 -3.687,-0.639 -5.019,-1.916 -1.325,-1.273 -1.984,-2.883 -1.984,-4.828 0,-1.924 0.643,-3.513 1.924,-4.764 1.281,-1.252 2.955,-1.878 5.028,-1.878 2.09,0 4.164,0.639 6.228,1.916 l 0.005,-2.682 c -2.107,-1.005 -4.155,-1.507 -6.152,-1.507 -2.929,0 -5.267,0.868 -7.004,2.61 -1.741,1.741 -2.609,3.789 -2.609,6.143 0,2.674 0.898,4.87 2.695,6.595 1.805,1.724 4.087,2.584 6.85,2.584 0.605,0 1.341,-0.08 2.205,-0.238 0.873,-0.158 2.141,-0.562 3.806,-1.222 m -5.951,2.252 z M 26.238,0 Z m 8.584,8.685 c 0,2.474 0.864,4.581 2.592,6.331 1.742,1.758 4.002,2.635 6.791,2.635 2.699,0 4.938,-0.847 6.709,-2.546 1.772,-1.69 2.657,-3.831 2.657,-6.42 0,-2.52 -0.881,-4.649 -2.644,-6.382 -1.754,-1.724 -4.023,-2.584 -6.799,-2.584 -2.72,0 -4.951,0.856 -6.701,2.571 -1.737,1.716 -2.605,3.849 -2.605,6.395 m 2.579,0 c 0,-1.92 0.643,-3.516 1.933,-4.789 1.29,-1.269 2.913,-1.904 4.871,-1.904 1.954,0 3.572,0.639 4.853,1.916 1.29,1.282 1.933,2.874 1.933,4.777 0,1.911 -0.643,3.504 -1.933,4.777 -1.281,1.277 -2.903,1.916 -4.866,1.916 -1.967,0 -3.589,-0.63 -4.87,-1.891 -1.282,-1.251 -1.921,-2.852 -1.921,-4.802 m 6.872,9.758 z M 56.615,17.37 h 2.504 V 2.248 H 66.91 V 0 H 56.615 Z m 2.172,1.073 z M 62.286,0 Z M 54.725,17.651 Z M 68.37,8.685 c 0,2.474 0.864,4.581 2.593,6.331 1.741,1.758 4.002,2.635 6.79,2.635 2.7,0 4.939,-0.847 6.71,-2.546 1.771,-1.69 2.656,-3.831 2.656,-6.42 0,-2.52 -0.881,-4.649 -2.643,-6.382 -1.754,-1.724 -4.023,-2.584 -6.799,-2.584 -2.721,0 -4.952,0.856 -6.701,2.571 -1.737,1.716 -2.606,3.849 -2.606,6.395 m 2.58,0 c 0,-1.92 0.643,-3.516 1.933,-4.789 1.289,-1.269 2.912,-1.904 4.87,-1.904 1.954,0 3.572,0.639 4.854,1.916 1.29,1.282 1.933,2.874 1.933,4.777 0,1.911 -0.643,3.504 -1.933,4.777 -1.282,1.277 -2.904,1.916 -4.867,1.916 -1.966,0 -3.589,-0.63 -4.87,-1.891 -1.282,-1.251 -1.92,-2.852 -1.92,-4.802 m 6.871,9.758 z M 99.615,6.36 v 2.249 h 5.901 V 1.184 c -2.201,-0.975 -4.402,-1.465 -6.604,-1.465 -2.728,0 -4.968,0.834 -6.717,2.499 -1.746,1.665 -2.619,3.793 -2.619,6.391 0,2.592 0.894,4.742 2.678,6.458 1.784,1.724 4.028,2.584 6.727,2.584 1.005,0 1.984,-0.119 2.937,-0.357 0.954,-0.235 2.019,-0.596 3.189,-1.095 v -2.533 c -1.915,1.141 -3.976,1.712 -6.177,1.712 -1.976,0 -3.598,-0.652 -4.866,-1.95 -1.274,-1.303 -1.908,-2.882 -1.908,-4.743 0,-1.992 0.66,-3.606 1.98,-4.841 1.332,-1.234 3.001,-1.852 5.011,-1.852 0.924,0 2.214,0.226 3.866,0.677 V 6.36 Z M 98.619,18.443 Z M 98.619,0 Z m 10.528,17.37 h 2.503 V 0 h -2.503 z m 1.303,1.073 z M 110.323,0 Z m -3.143,17.651 z m 1.993,0.792 1.639,3.781 h 2.55 l -2.788,-3.781 z m 1.277,0 z M 113.567,0 l 7.587,17.447 h 1.762 L 130.707,0 h -2.542 l -2.384,5.151 V 5.16 H 118.39 V 5.151 L 116.108,0 Z m 5.773,7.395 v 0.013 h 5.466 V 7.395 l -2.81,6.173 h -0.012 z m 2.733,11.048 z M 129.506,0 Z M 113.567,17.651 Z M 133.138,0.311 V 0.307 c -0.89,0.089 -1.333,0.579 -1.333,1.456 0,0.455 0.141,0.825 0.422,1.111 0.281,0.281 0.656,0.421 1.119,0.421 0.524,0 0.937,-0.217 1.244,-0.647 0.306,-0.434 0.459,-1.005 0.459,-1.72 0,-0.983 -0.268,-1.805 -0.808,-2.469 -0.533,-0.665 -1.231,-1.111 -2.104,-1.346 v 0.537 c 0.699,0.515 1.048,1.239 1.048,2.175 0,0.23 -0.017,0.392 -0.047,0.486 M 142.506,0 l 7.587,17.447 h 1.763 L 159.647,0 h -2.542 l -2.384,5.151 V 5.16 H 147.33 V 5.151 L 145.048,0 Z m 5.773,7.395 v 0.013 h 5.467 V 7.395 l -2.81,6.173 h -0.013 z m 2.734,11.048 z M 158.446,0 Z m -15.94,17.651 z M 160.745,1.303 c 0,0.425 0.145,0.783 0.434,1.085 0.303,0.298 0.669,0.447 1.099,0.447 0.425,0 0.783,-0.149 1.085,-0.447 0.298,-0.302 0.447,-0.66 0.447,-1.085 0,-0.43 -0.149,-0.797 -0.447,-1.099 -0.302,-0.289 -0.66,-0.434 -1.085,-0.434 -0.43,0 -0.796,0.145 -1.099,0.434 -0.289,0.302 -0.434,0.669 -0.434,1.099 m 21.155,14.888 0.005,-2.729 c -2.048,1.277 -4.041,1.916 -5.978,1.916 -2.014,0 -3.687,-0.639 -5.019,-1.916 -1.325,-1.273 -1.984,-2.883 -1.984,-4.828 0,-1.924 0.642,-3.513 1.924,-4.764 1.281,-1.252 2.955,-1.878 5.028,-1.878 2.09,0 4.164,0.639 6.228,1.916 l 0.005,-2.682 c -2.108,-1.005 -4.155,-1.507 -6.152,-1.507 -2.929,0 -5.267,0.868 -7.004,2.61 -1.741,1.741 -2.609,3.789 -2.609,6.143 0,2.674 0.898,4.87 2.695,6.595 1.805,1.724 4.086,2.584 6.85,2.584 0.605,0 1.341,-0.08 2.205,-0.238 0.873,-0.158 2.141,-0.562 3.806,-1.222 m -5.952,2.252 z M 175.769,0 Z m 8.66,1.303 c 0,0.425 0.145,0.783 0.434,1.085 0.303,0.298 0.668,0.447 1.098,0.447 0.427,0 0.784,-0.149 1.086,-0.447 0.298,-0.302 0.447,-0.66 0.447,-1.085 0,-0.43 -0.149,-0.797 -0.447,-1.099 -0.302,-0.289 -0.659,-0.434 -1.086,-0.434 -0.43,0 -0.795,0.145 -1.098,0.434 -0.289,0.302 -0.434,0.669 -0.434,1.099"
           style="fill:#59178a;fill-opacity:1;fill-rule:evenodd;stroke:none"
           transform="matrix(1.3333333,0,0,-1.3333333,698.42573,537.48147)"
           clip-path="url(#clipPath2)" />
        <path
           id="path3"
           d="m 0,0 c 0.407,0.153 0.975,0.23 1.243,-0.092 0.329,-0.357 0.02,-0.819 -0.608,-1.245 -59.88,-40.612 -89.494,-12.458 -89.774,-9.388 -0.243,2.598 6.26,4.645 14.4,4.209 11.373,-0.615 28.563,-3.538 46.058,-1.42 C -19.538,-6.823 -10.838,-3.455 0,0"
           style="fill:#6b8f00;fill-opacity:1;fill-rule:evenodd;stroke:none"
           transform="matrix(1.3333333,0,0,-1.3333333,270.79147,347.33453)"
           clip-path="url(#clipPath4)" />
        <path
           id="path5"
           d="m 0,0 c -1.672,-0.673 -3.807,-1.719 -6.779,-2.32 -56.146,-11.348 -102.594,10.065 -103.573,9.525 -0.704,-0.434 35.262,-21.067 84.109,-14.686 l -0.027,-0.006 c 3.139,0.245 3.926,-0.73 1.204,-1.628 -49.665,-12.887 -94.832,5.226 -110.971,23.751 -4.145,4.998 -4.506,8.209 -4.265,9.866 0.323,2.186 5.562,3.227 21.042,-0.529 10.918,-2.858 19.007,-6.036 34.776,-12.152 C -52.646,-0.582 -30.396,-3.866 -0.35,1.432 0.318,1.566 0.901,1.452 1.076,1.146 1.242,0.797 0.813,0.299 0,0"
           style="fill:#6b8f00;fill-opacity:1;fill-rule:evenodd;stroke:none"
           transform="matrix(1.3333333,0,0,-1.3333333,296.99533,331.91133)"
           clip-path="url(#clipPath6)" />
        <path
           id="path7"
           d="m 0,0 c -15.68,4.777 -41.956,18.919 -45.452,23.781 -10.509,17.426 -9.63,26.5 -10.849,29.342 -1.074,-2.681 -1.609,-13.443 6.85,-27.728 -28.035,21.793 -35.672,46.143 -37.204,46.254 -1.314,0.065 9.375,-32.477 42.817,-54.33 C -41.527,15.807 -25.63,6.843 -10.1,0.796 l -0.005,0.002 c 5.418,-2.27 4.523,-3.146 -2.096,-2.062 -17.36,3.027 -33.089,8.99 -44.758,15.93 -9.1,5.503 -18.932,13.114 -26.613,23.124 -21.361,27.803 -15.716,52.375 -11.548,54.443 4.161,2.076 23.782,-10.604 63.259,-55.938 C -16.517,18.671 5.018,-2.813 34.515,1.055 35.9,0.995 34.939,-0.142 33.404,-0.638 23.078,-3.978 12.685,-3.408 3.258,-0.907 2.144,-0.616 1.055,-0.311 0,0"
           style="fill:#6b8f00;fill-opacity:1;fill-rule:evenodd;stroke:none"
           transform="matrix(1.3333333,0,0,-1.3333333,258.3224,323.5768)"
           clip-path="url(#clipPath8)" />
        <path
           id="path9"
           d="m 0,0 c -0.637,6.199 -2.667,10.732 -5.952,14.081 -3.61,3.649 -8.388,5.404 -14.096,5.404 -5.727,0 -10.689,-1.659 -14.434,-5.338 -6.697,-6.533 -7.876,-18.559 -7.422,-22.862 0.88,-8.324 3.067,-15.132 8.065,-19.932 5.016,-4.801 11.462,-7.123 19.099,-7.123 8.99,0 17.396,2.412 25.168,7.219 1.939,-4.427 0.087,-9.44 -4.333,-11.571 -2.62,-1.367 -5.241,-2.415 -7.826,-3.161 -4.261,-1.239 -9.365,-1.877 -15.327,-1.877 -8.091,0 -14.381,1.647 -19.082,4.817 -4.855,3.247 -8.75,7.611 -11.75,13.141 -2.886,5.525 -4.36,11.94 -4.36,19.368 0,11.136 3.145,19.954 9.251,26.695 6.089,6.73 13.987,10.161 23.864,10.161 9.501,0 16.873,-3.304 22.405,-9.795 5.495,-6.446 8.381,-15.2 8.471,-26.476 L 6.764,-7.285 h -24.053 l -16.76,0.026 c 0,4.092 3.35,7.271 7.436,7.271 h 9.324 z m 83.973,-41.489 c -6.144,-2.363 -12.635,-3.442 -19.717,-3.442 -7.829,0 -14.49,1.597 -19.948,4.809 -5.458,3.218 -9.787,7.639 -12.969,13.272 -3.181,5.651 -4.753,11.753 -4.753,18.327 0,10.436 3.603,19.189 10.897,26.307 7.285,7.103 16.286,10.663 26.984,10.663 5.864,0 12.282,-1.259 19.204,-3.741 5.079,-2.325 7.488,-8.094 5.36,-13.185 -8.199,4.796 -16.232,7.198 -24.065,7.198 -8.053,0 -14.729,-2.609 -20.062,-7.807 -5.28,-5.155 -7.939,-11.637 -7.939,-19.435 0,-7.87 2.615,-14.328 7.831,-19.391 5.234,-5.064 11.931,-7.59 20.061,-7.59 8.192,0 16.209,2.477 24.028,7.422 2.226,-5.129 0.129,-10.938 -4.912,-13.407 m -220.314,64.234 c 0.174,3.024 2.685,5.444 5.761,5.444 1.802,0 3.456,-0.832 4.492,-2.146 l 46.933,-54.019 0.007,46.031 c 0,5.532 4.345,10.054 9.884,10.054 l 0.035,-8.987 -0.138,-57.518 c -0.14,-3.286 -2.821,-5.778 -6.066,-5.778 -1.916,0 -3.631,0.882 -4.752,2.257 l -46.421,53.425 -0.006,-45.945 c 0,-5.376 -4.279,-9.737 -9.671,-9.737 z M 140.26,19.043 c -7.766,0 -14.179,-2.597 -19.19,-7.791 -5.01,-5.198 -7.52,-11.852 -7.52,-19.899 0,-7.861 2.523,-14.381 7.552,-19.576 5.025,-5.208 11.321,-7.807 18.878,-7.807 7.573,0 13.919,2.663 18.974,7.975 5.082,5.288 7.629,11.894 7.629,19.81 0,7.688 -2.547,14.169 -7.629,19.391 -5.055,5.275 -11.285,7.897 -18.694,7.897 m -0.382,9.898 c 10.515,0 19.264,-3.571 26.236,-10.666 6.997,-7.115 10.501,-16.027 10.501,-26.743 0,-10.718 -3.535,-19.578 -10.614,-26.615 -7.023,-7.001 -15.921,-10.504 -26.651,-10.504 -10.266,0 -18.797,3.503 -25.638,10.504 -6.827,7.037 -10.216,15.833 -10.216,26.436 0,10.831 3.431,19.807 10.314,26.922 6.864,7.095 15.556,10.656 26.068,10.666 m -311.465,3.366 c 0,5.804 4.519,10.547 10.342,10.547 l 0.017,-75.819 c 0,-5.819 -4.496,-10.547 -10.322,-10.547 z M 194.267,17.3 c 0,5.809 4.519,10.55 10.338,10.55 l 0.094,-62.908 h 22.143 l 0.845,-0.014 c 5.277,0 9.598,-4.127 9.598,-9.419 -30.461,-0.024 -30.476,-0.007 -30.476,-0.007 l -0.491,0.007 h -6.581 c -2.887,0.208 -5.263,2.575 -5.42,5.471 v 4.205 z"
           style="fill:#6b8f00;fill-opacity:1;fill-rule:evenodd;stroke:none"
           transform="matrix(1.3333333,0,0,-1.3333333,632.01187,425.46107)"
           clip-path="url(#clipPath10)" />
        <path
           id="path11"
           d="m 0,0 h -0.078 c -1.644,-0.005 -3.356,-0.127 -5.126,-0.387 -20.706,-3.068 -27.934,-28.88 -28.9,-33.75 -3.718,-18.784 -43.824,-28.109 -57.667,-62.665 -6.607,-16.464 0.713,-37.674 10.693,-47.901 0.804,-0.833 1.63,-1.647 2.483,-2.459 -5.615,-8.454 -9.407,-18.221 -10.214,-30.276 -2.41,-36.037 19.935,-53.848 36.802,-64.885 20.841,-13.588 21.485,-3.054 18.425,-1.271 -1.009,0.581 -5.239,2.508 -10.716,6.039 4.131,3.891 39.332,34.597 37.513,37.2 -3.222,4.61 -39.298,-29.457 -43.389,-33.066 -4.489,3.416 -9.266,7.755 -13.564,13.148 4.825,3.507 33.964,25.236 32.19,27.617 -2.355,3.117 -32.156,-19.824 -35.987,-22.35 -3.472,5.324 -6.363,11.464 -8.136,18.519 3.715,1.726 24.013,9.536 20.995,13.447 -1.084,1.412 -3.065,0.505 -5.114,0 -2.042,-0.504 -16.762,-7.351 -16.762,-7.351 l -0.263,-0.502 c -2.24,13.579 -1.185,26.99 4.119,38.61 30.236,-24.246 76.571,-35.087 85.659,-69.324 5.215,-19.685 1.769,-32.717 5.367,-36.304 3.579,-3.591 13.286,-2.29 13.286,0.26 0,2.024 1.046,41.727 -37.325,72.891 -14.284,11.732 -32.483,22.237 -54.473,39.369 -1.62,1.264 -3.386,2.881 -5.166,4.789 2.763,3.352 6.031,6.401 9.827,9.197 19.951,14.563 64.142,38.601 64.323,70.306 0.031,8.332 -5.56,14.091 -6.333,10.338 -8.971,-44.242 -47.737,-59.866 -71.806,-85.003 -9.212,12.546 -16.126,33.073 -1.599,56.35 14.815,23.72 39.174,29.237 44.809,45.857 3.368,9.96 9.934,21.504 22.379,23.385 17.698,2.694 17.04,-13.005 13.133,-13.744 -5.104,12.423 -23.135,2.45 -14.801,-10.307 5.023,-7.674 15.486,-3.928 18.033,-2.667 2.569,1.27 10.131,6.643 12.692,8.684 22.657,18.069 65.532,21.773 93.925,21.471 6.92,-0.074 11.489,0.815 14.689,1.488 -4.359,3.585 -43.733,2.816 -60.612,0.773 C 53.994,-6.814 25.985,-11.379 25.985,-11.379 25.985,-11.379 16.175,0 0,0"
           style="fill:#59178a;fill-opacity:1;fill-rule:evenodd;stroke:none"
           transform="matrix(1.3333333,0,0,-1.3333333,366.0492,269.23547)"
           clip-path="url(#clipPath12)" />
      </g>
    </g>
  </g>
</svg>
