<?xml version="1.0" encoding="UTF-8" standalone="no"?>
<!-- Created with Inkscape (http://www.inkscape.org/) -->

<svg
   width="11in"
   height="8.5in"
   viewBox="0 0 279.4 215.9"
   version="1.1"
   id="svg1"
   inkscape:version="1.4.3 (0d15f75, 2025-12-25)"
   sodipodi:docname="inecol.svg"
   xmlns:inkscape="http://www.inkscape.org/namespaces/inkscape"
   xmlns:sodipodi="http://sodipodi.sourceforge.net/DTD/sodipodi-0.dtd"
   xmlns="http://www.w3.org/2000/svg"
   xmlns:svg="http://www.w3.org/2000/svg">
  <sodipodi:namedview
     id="namedview1"
     pagecolor="#ffffff"
     bordercolor="#000000"
     borderopacity="0.25"
     inkscape:showpageshadow="2"
     inkscape:pageopacity="0.0"
     inkscape:pagecheckerboard="0"
     inkscape:deskcolor="#d1d1d1"
     inkscape:document-units="mm"
     inkscape:zoom="0.52203984"
     inkscape:cx="396.52146"
     inkscape:cy="561.25984"
     inkscape:window-width="1440"
     inkscape:window-height="830"
     inkscape:window-x="-6"
     inkscape:window-y="-6"
     inkscape:window-maximized="1"
     inkscape:current-layer="layer1" />
  <defs
     id="defs1" />
  <g
     inkscape:label="Capa 1"
     inkscape:groupmode="layer"
     id="layer1">
    <g
       id="g1"
       transform="translate(-25.475577,-12.666549)">
      <path
         id="path1"
         d="m 209.96697,154.82524 h 5.05601 v -0.88971 h -4.03084 v -3.14148 h 3.76026 v -0.88971 h -3.76026 v -3.08716 h 3.90913 v -0.8897 h -4.9343 z m -65.64347,0 h 1.02517 v -8.89776 h -1.02517 z m 68.01555,-9.56804 z m 1.41816,9.56804 z m -4.98298,-9.15741 z m -61.57807,3.02966 h 0.70309 l 4.16172,4.74133 -0.008,-4.74133 h 0.82903 v 6.12775 h -0.75671 l -4.10492,-4.71452 0.005,4.71452 h -0.82903 z m 6.80227,4.53284 c 0.44308,0.60078 0.9719,0.901 1.58608,0.901 0.28223,0 0.51506,-0.0706 0.69992,-0.21167 0.18767,-0.14146 0.28222,-0.33055 0.28222,-0.56762 0,-0.21802 -0.0646,-0.40711 -0.19368,-0.56938 -0.12629,-0.16087 -0.42792,-0.38735 -0.90417,-0.67734 -0.43109,-0.2734 -0.79763,-0.5408 -1.09819,-0.80221 -0.29563,-0.26423 -0.4445,-0.6156 -0.4445,-1.05269 0,-0.51365 0.17145,-0.91758 0.5154,-1.21215 0.34396,-0.2928 0.79905,-0.43991 1.36208,-0.43991 0.50906,0 0.96414,0.1457 1.36701,0.43533 v 0.97049 c -0.15945,-0.15487 -0.36653,-0.29457 -0.62336,-0.42051 -0.25223,-0.12771 -0.52881,-0.19227 -0.82938,-0.19227 -0.29104,0 -0.52846,0.072 -0.71155,0.21626 -0.17886,0.14428 -0.26917,0.31679 -0.26917,0.51964 0,0.21907 0.0843,0.41134 0.25118,0.5722 0.16792,0.15911 0.45473,0.35596 0.86042,0.5902 0.60537,0.37536 1.01071,0.69991 1.21638,0.96873 0.20885,0.2674 0.31256,0.59937 0.31256,0.99589 0,0.48789 -0.1591,0.889 -0.47907,1.20297 -0.31997,0.3108 -0.72848,0.46708 -1.22414,0.46708 -0.65652,0 -1.21496,-0.18909 -1.67604,-0.56938 z m 3.83892,-4.53284 h 5.10046 v 0.79304 h -2.1089 v 5.33471 h -0.883 v -5.33471 h -2.10856 z m 5.99264,0 h 0.883 v 6.12775 h -0.883 z m 1.70321,0 h 5.10046 v 0.79304 h -2.1089 v 5.33471 h -0.88301 v -5.33471 h -2.10855 z m 5.84835,0 h 0.88336 v 3.66607 c 0,0.63817 0.1725,1.09043 0.51964,1.35749 0.34537,0.26775 0.7373,0.40146 1.17439,0.40146 0.47625,0 0.92499,-0.0861 1.31551,-0.3743 0.33937,-0.25365 0.52,-0.67416 0.54081,-1.26612 v -0.20249 -3.58211 h 0.883 v 3.72181 c 0,0.81562 -0.24624,1.43721 -0.73871,1.8669 -0.49283,0.42474 -1.13842,0.63817 -1.93922,0.63817 -0.80645,0 -1.4478,-0.21202 -1.92687,-0.63359 -0.47449,-0.42368 -0.71191,-1.02164 -0.71191,-1.79811 z m 5.97464,0 h 5.10046 v 0.79304 h -2.10855 v 5.33471 h -0.88335 v -5.33471 h -2.10856 z m 5.69525,3.06388 c 0,-0.87278 0.3048,-1.61608 0.91475,-2.23344 0.61419,-0.62018 1.41182,-0.92957 2.39536,-0.92957 0.9525,0 1.74237,0.2988 2.36714,0.89817 0.62477,0.5962 0.93733,1.35149 0.93733,2.26484 0,0.889 -0.3108,1.64006 -0.93274,2.25142 -0.61878,0.60819 -1.41923,0.91158 -2.39854,0.91158 -0.95955,0 -1.7466,-0.30198 -2.36396,-0.90699 -0.61278,-0.60537 -0.91934,-1.35784 -0.91934,-2.25601 m 0.91016,0 c 0,0.67733 0.22684,1.24036 0.68192,1.68945 0.45509,0.44767 1.02729,0.67169 1.71803,0.67169 0.68968,0 1.26048,-0.22543 1.71238,-0.67593 0.45509,-0.45226 0.68192,-1.01388 0.68192,-1.68521 0,-0.67416 -0.22683,-1.23614 -0.68192,-1.68522 -0.4519,-0.4505 -1.02446,-0.67593 -1.71661,-0.67593 -0.69392,0 -1.26612,0.22225 -1.71838,0.66711 -0.45191,0.44132 -0.67734,1.00612 -0.67734,1.69404 m 10.56076,3.06387 v -6.12775 h 2.43628 c 1.00013,0 1.78859,0.30163 2.36538,0.90699 0.5782,0.60078 0.86642,1.3201 0.86642,2.15689 0,0.83961 -0.30163,1.56033 -0.90558,2.16111 -0.60043,0.60255 -1.37724,0.90276 -2.32622,0.90276 z m 0.883,-0.79304 h 1.46897 c 0.71332,0 1.29187,-0.21767 1.73778,-0.65194 0.44627,-0.43391 0.66852,-0.96696 0.66852,-1.6009 0,-0.72531 -0.22825,-1.28729 -0.68651,-1.68663 -0.45367,-0.40111 -1.05304,-0.6022 -1.79493,-0.6022 h -1.39383 z m 1.397,-5.71324 z m -2.97391,0.2794 z m 7.43479,6.22688 v -6.12775 h 3.48721 v 0.79304 h -2.60421 v 1.85632 h 2.50507 v 0.79269 h -2.50507 v 1.89266 h 2.68534 v 0.79304 z m 1.74801,-6.50628 z m 0.96414,6.50628 z m -3.38808,-6.22688 z m 20.79872,0.51506 0.002,0.96273 c -0.72249,-0.4505 -1.42558,-0.67593 -2.10891,-0.67593 -0.71049,0 -1.30069,0.22543 -1.77059,0.67593 -0.46743,0.44908 -0.69991,1.01705 -0.69991,1.70321 0,0.67874 0.22684,1.23931 0.67874,1.68063 0.45191,0.44168 1.04246,0.66252 1.77377,0.66252 0.73731,0 1.46897,-0.22543 2.1971,-0.67593 l 0.002,0.94615 c -0.7433,0.35455 -1.46579,0.53164 -2.17028,0.53164 -1.03329,0 -1.85809,-0.30621 -2.47086,-0.92075 -0.61419,-0.61419 -0.9204,-1.33667 -0.9204,-2.16711 0,-0.94333 0.3168,-1.71803 0.95074,-2.32657 0.63676,-0.60819 1.4418,-0.91158 2.41653,-0.91158 0.21343,0 0.47307,0.0282 0.77787,0.084 0.30798,0.0557 0.7553,0.19826 1.34267,0.4311 m -2.09938,-0.79446 z m -0.0635,6.50628 z m 3.02825,-3.06387 c 0,-0.87278 0.3048,-1.61608 0.9144,-2.23344 0.61454,-0.62018 1.41181,-0.92957 2.39571,-0.92957 0.95215,0 1.74202,0.2988 2.36679,0.89817 0.62512,0.5962 0.93733,1.35149 0.93733,2.26484 0,0.889 -0.3108,1.64006 -0.93275,2.25142 -0.61877,0.60819 -1.41922,0.91158 -2.39853,0.91158 -0.95956,0 -1.74661,-0.30198 -2.36397,-0.90699 -0.61277,-0.60537 -0.91898,-1.35784 -0.91898,-2.25601 m 0.90981,0 c 0,0.67733 0.22684,1.24036 0.68192,1.68945 0.45508,0.44767 1.02764,0.67169 1.71838,0.67169 0.68933,0 1.26012,-0.22543 1.71203,-0.67593 0.45508,-0.45226 0.68192,-1.01388 0.68192,-1.68521 0,-0.67416 -0.22684,-1.23614 -0.68192,-1.68522 -0.45191,-0.4505 -1.02411,-0.67593 -1.71662,-0.67593 -0.69391,0 -1.26611,0.22225 -1.71802,0.66711 -0.45226,0.44132 -0.67769,1.00612 -0.67769,1.69404 m 2.42429,-3.44241 z m 4.35398,0.37853 h 0.88336 v 5.33471 h 2.74849 v 0.79304 h -3.63185 z m 0.76624,-0.37853 z m 1.23437,6.50628 z m -2.66736,-6.22688 z m 4.81366,3.16301 c 0,-0.87278 0.3048,-1.61608 0.91475,-2.23344 0.61418,-0.62018 1.41181,-0.92957 2.39536,-0.92957 0.9525,0 1.74237,0.2988 2.36714,0.89817 0.62477,0.5962 0.93698,1.35149 0.93698,2.26484 0,0.889 -0.3108,1.64006 -0.9324,2.25142 -0.61877,0.60819 -1.41922,0.91158 -2.39853,0.91158 -0.95991,0 -1.74696,-0.30198 -2.36397,-0.90699 -0.61277,-0.60537 -0.91933,-1.35784 -0.91933,-2.25601 m 0.91016,0 c 0,0.67733 0.22684,1.24036 0.68192,1.68945 0.45473,0.44767 1.02729,0.67169 1.71803,0.67169 0.68933,0 1.26012,-0.22543 1.71238,-0.67593 0.45509,-0.45226 0.68192,-1.01388 0.68192,-1.68521 0,-0.67416 -0.22683,-1.23614 -0.68192,-1.68522 -0.45226,-0.4505 -1.02446,-0.67593 -1.71697,-0.67593 -0.69356,0 -1.26612,0.22225 -1.71802,0.66711 -0.45227,0.44132 -0.67734,1.00612 -0.67734,1.69404 m 2.42394,-3.44241 z m 7.68844,4.26261 v -0.79339 h 2.08174 v 2.61937 c -0.77647,0.34396 -1.55293,0.51682 -2.32975,0.51682 -0.96237,0 -1.7526,-0.29422 -2.3696,-0.88159 -0.61595,-0.58738 -0.92393,-1.33809 -0.92393,-2.2546 0,-0.9144 0.31538,-1.67288 0.94474,-2.27824 0.62935,-0.60819 1.42099,-0.91158 2.37314,-0.91158 0.35454,0 0.69991,0.042 1.0361,0.12594 0.33655,0.0829 0.71226,0.21026 1.12501,0.38629 v 0.89359 c -0.67557,-0.40252 -1.40264,-0.60396 -2.17911,-0.60396 -0.69709,0 -1.26929,0.23001 -1.71661,0.68792 -0.44944,0.45967 -0.6731,1.01671 -0.6731,1.67323 0,0.70273 0.23283,1.27211 0.6985,1.70779 0.4699,0.43533 1.05868,0.65335 1.76777,0.65335 0.32596,0 0.78105,-0.0797 1.36384,-0.23883 v -1.30211 z m -0.35137,-4.26261 z m 0,6.50628 z m 3.71404,-6.12775 h 0.88301 v 6.12775 h -0.88301 z m 0.45967,-0.37853 z m -0.0448,6.50628 z m -1.10878,-6.22688 z m 0.70309,-0.2794 0.5782,-1.33385 h 0.89958 l -0.98354,1.33385 z m 0.45049,0 z m 1.09961,6.50628 2.67653,-6.15491 h 0.62159 l 2.74849,6.15491 h -0.89676 l -0.84102,-1.81716 v -0.003 h -2.60738 v 0.003 l -0.80504,1.81716 z m 2.03659,-2.60879 v -0.005 h 1.92828 v 0.005 l -0.9913,-2.1777 h -0.004 z m 0.96414,-3.89749 z m 2.6222,6.50628 z m -5.62293,-6.22688 z m 6.90422,6.11717 v 10e-4 c -0.31398,-0.0314 -0.47026,-0.20426 -0.47026,-0.51365 0,-0.16051 0.0497,-0.29104 0.14887,-0.39193 0.0991,-0.0991 0.23143,-0.14852 0.39476,-0.14852 0.18486,0 0.33056,0.0765 0.43886,0.22824 0.10795,0.15311 0.16192,0.35455 0.16192,0.60678 0,0.34678 -0.0945,0.63677 -0.28504,0.87101 -0.18803,0.2346 -0.43427,0.39194 -0.74225,0.47484 v -0.18944 c 0.2466,-0.18168 0.36972,-0.43709 0.36972,-0.76729 0,-0.0811 -0.006,-0.13829 -0.0166,-0.17145 m 3.30482,0.10971 2.67652,-6.15491 h 0.62195 l 2.74849,6.15491 h -0.89676 l -0.84102,-1.81716 v -0.003 h -2.60738 v 0.003 l -0.80504,1.81716 z m 2.03658,-2.60879 v -0.005 h 1.92864 v 0.005 l -0.99131,-2.1777 h -0.005 z m 0.9645,-3.89749 z m 2.62219,6.50628 z m -5.62327,-6.22688 z m 6.43431,5.76721 c 0,-0.14993 0.0511,-0.27622 0.15311,-0.38276 0.10689,-0.10513 0.236,-0.15769 0.3877,-0.15769 0.14993,0 0.27622,0.0526 0.38276,0.15769 0.10513,0.10654 0.15769,0.23283 0.15769,0.38276 0,0.1517 -0.0526,0.28116 -0.15769,0.3877 -0.10654,0.10196 -0.23283,0.15311 -0.38276,0.15311 -0.1517,0 -0.28081,-0.0512 -0.3877,-0.15311 -0.10196,-0.10654 -0.15311,-0.236 -0.15311,-0.3877 m 7.46301,-5.25215 0.002,0.96273 c -0.72249,-0.4505 -1.42558,-0.67593 -2.10891,-0.67593 -0.71049,0 -1.30069,0.22543 -1.77059,0.67593 -0.46743,0.44908 -0.69991,1.01705 -0.69991,1.70321 0,0.67874 0.22648,1.23931 0.67874,1.68063 0.45191,0.44168 1.04246,0.66252 1.77377,0.66252 0.73731,0 1.46897,-0.22543 2.1971,-0.67593 l 0.002,0.94615 c -0.74366,0.35455 -1.4658,0.53164 -2.17029,0.53164 -1.03329,0 -1.85808,-0.30621 -2.47086,-0.92075 -0.61419,-0.61419 -0.9204,-1.33667 -0.9204,-2.16711 0,-0.94333 0.3168,-1.71803 0.95074,-2.32657 0.63676,-0.60819 1.44145,-0.91158 2.41653,-0.91158 0.21343,0 0.47307,0.0282 0.77787,0.084 0.30798,0.0557 0.7553,0.19826 1.34267,0.4311 m -2.09973,-0.79446 z m -0.0632,6.50628 z m 3.05506,-0.45967 c 0,-0.14993 0.0512,-0.27622 0.15311,-0.38276 0.10689,-0.10513 0.23565,-0.15769 0.38735,-0.15769 0.15063,0 0.27657,0.0526 0.38311,0.15769 0.10513,0.10654 0.15769,0.23283 0.15769,0.38276 0,0.1517 -0.0526,0.28116 -0.15769,0.3877 -0.10654,0.10196 -0.23248,0.15311 -0.38311,0.15311 -0.1517,0 -0.28046,-0.0512 -0.38735,-0.15311 -0.10196,-0.10654 -0.15311,-0.236 -0.15311,-0.3877"
         style="fill:#59178a;fill-opacity:1;fill-rule:evenodd;stroke:none;stroke-width:0.352778" />
      <path
         id="path2"
         d="m 96.822071,104.51552 c 0.143581,-0.054 0.343958,-0.0811 0.438503,0.0325 0.116064,0.12594 0.0071,0.28892 -0.214489,0.4392 -21.124332,14.32701 -31.571493,4.39491 -31.670271,3.31188 -0.08573,-0.91652 2.208389,-1.63865 5.08,-1.48484 4.012141,0.21696 10.076391,1.24813 16.248238,0.50094 3.225447,-0.39264 6.294614,-1.58079 10.118019,-2.79964"
         style="fill:#6b8f00;fill-opacity:1;fill-rule:evenodd;stroke:none;stroke-width:0.352778" />
      <path
         id="path3"
         d="m 103.75518,100.4348 c -0.58984,0.23742 -1.34302,0.60642 -2.39148,0.81844 -19.807061,4.00333 -36.192882,-3.550704 -36.538251,-3.360204 -0.248356,0.153106 12.439649,7.431974 29.671784,5.180894 l -0.0095,0.002 c 1.10737,-0.0864 1.385006,0.25752 0.424745,0.57432 -17.520708,4.54625 -33.454621,-1.84362 -39.148101,-8.378825 -1.462264,-1.763184 -1.589617,-2.895953 -1.504597,-3.480506 0.113947,-0.771172 1.96215,-1.138414 7.423149,0.18662 3.851628,1.008239 6.705247,2.129366 12.2682,4.286955 11.231738,4.375506 19.081043,5.534026 29.680611,3.665008 0.23565,-0.04727 0.44132,-0.0071 0.50306,0.100898 0.0586,0.12312 -0.0928,0.2988 -0.37959,0.40428"
         style="fill:#6b8f00;fill-opacity:1;fill-rule:evenodd;stroke:none;stroke-width:0.352778" />
      <path
         id="path4"
         d="M 93.522963,98.229625 C 87.991408,96.544406 78.721819,91.555423 77.488508,89.840217 73.781167,83.692712 74.091258,80.491606 73.661222,79.489012 73.282339,80.434809 73.093603,84.231403 76.07775,89.270834 66.187625,81.582748 63.493462,72.99261 62.953006,72.953451 c -0.46355,-0.02293 3.307292,11.457164 15.104886,19.166416 0.815269,0.5334 6.423377,3.6957 11.902016,5.828947 l -0.0018,-7.06e-4 c 1.91135,0.800806 1.595614,1.109839 -0.739422,0.727428 C 83.0945,97.607678 77.545658,95.504064 73.429095,93.055786 70.218817,91.11445 66.750306,88.429459 64.04062,84.898153 56.504934,75.089873 58.496365,66.421418 59.966742,65.691874 c 1.467909,-0.732367 8.389761,3.740855 22.316369,19.733682 5.413022,6.217355 13.010091,13.796433 23.415979,12.431888 0.48859,0.02117 0.14958,0.422275 -0.39194,0.597253 -3.64278,1.178278 -7.309201,0.977195 -10.634837,0.0949 -0.392994,-0.102658 -0.777169,-0.210255 -1.14935,-0.319969"
         style="fill:#6b8f00;fill-opacity:1;fill-rule:evenodd;stroke:none;stroke-width:0.352778" />
      <path
         id="path5"
         d="m 192.39497,125.1865 c -0.22472,-2.18687 -0.94086,-3.78601 -2.09973,-4.96746 -1.27353,-1.28729 -2.9591,-1.90641 -4.97276,-1.90641 -2.02036,0 -3.77084,0.58525 -5.09199,1.88312 -2.36256,2.3047 -2.77848,6.54721 -2.61832,8.06521 0.31045,2.93652 1.08197,5.33823 2.84515,7.03156 1.76954,1.69369 4.04354,2.51284 6.73771,2.51284 3.17147,0 6.13692,-0.8509 8.87871,-2.5467 0.68403,1.56174 0.0307,3.33022 -1.52859,4.08199 -0.92428,0.48225 -1.84891,0.85196 -2.76084,1.11513 -1.50318,0.43709 -3.30376,0.66216 -5.40702,0.66216 -2.85433,0 -5.0733,-0.58102 -6.73171,-1.69933 -1.71273,-1.14547 -3.0868,-2.68499 -4.14514,-4.63585 -1.01811,-1.9491 -1.53811,-4.21217 -1.53811,-6.8326 0,-3.92853 1.10949,-7.03933 3.26355,-9.4174 2.14806,-2.3742 4.9343,-3.58458 8.41869,-3.58458 3.35174,0 5.95242,1.16558 7.90398,3.45546 1.93852,2.27401 2.95663,5.36222 2.98838,9.34015 l -1.75577,0.0127 h -8.48536 l -5.91256,-0.009 c 0,-1.44356 1.18181,-2.56504 2.62326,-2.56504 h 3.2893 z m 29.62381,14.6364 c -2.16747,0.83361 -4.45735,1.21426 -6.95572,1.21426 -2.7619,0 -5.11175,-0.56339 -7.03721,-1.69651 -1.92546,-1.13524 -3.45264,-2.69487 -4.57518,-4.68207 -1.12218,-1.99354 -1.67675,-4.14619 -1.67675,-6.46536 0,-3.68158 1.27106,-6.76945 3.84422,-9.28052 2.56998,-2.50578 5.74534,-3.76167 9.51935,-3.76167 2.06869,0 4.33282,0.44415 6.77475,1.31974 1.79176,0.82021 2.6416,2.85539 1.89089,4.65138 -2.89243,-1.69192 -5.72629,-2.5393 -8.4896,-2.5393 -2.84092,0 -5.19606,0.9204 -7.07743,2.75414 -1.86266,1.81857 -2.8007,4.10527 -2.8007,6.85623 0,2.77637 0.92251,5.0546 2.7626,6.84072 1.84644,1.78646 4.20899,2.67758 7.07708,2.67758 2.88995,0 5.71817,-0.87383 8.47654,-2.61831 0.78528,1.80939 0.0455,3.85868 -1.73284,4.72969 M 144.2969,117.16257 c 0.0614,-1.0668 0.94721,-1.92052 2.03235,-1.92052 0.63571,0 1.2192,0.29351 1.58468,0.75706 l 16.55692,19.0567 0.002,-16.23871 c 0,-1.95157 1.53282,-3.54683 3.48685,-3.54683 l 0.0123,3.17041 -0.0487,20.29107 c -0.0494,1.15923 -0.99519,2.03835 -2.13995,2.03835 -0.67593,0 -1.28094,-0.31115 -1.6764,-0.79621 l -16.3763,-18.84716 -0.002,16.20838 c 0,1.89653 -1.50953,3.43499 -3.41171,3.43499 z m 97.57868,1.30598 c -2.73967,0 -5.00204,0.91617 -6.76981,2.74849 -1.76741,1.83374 -2.65289,4.18113 -2.65289,7.01993 0,2.77319 0.89006,5.0733 2.66418,6.90598 1.77271,1.83726 3.9938,2.75413 6.65974,2.75413 2.67159,0 4.91031,-0.93944 6.69361,-2.8134 1.79281,-1.86549 2.69134,-4.19594 2.69134,-6.98853 0,-2.71215 -0.89853,-4.99851 -2.69134,-6.84071 -1.7833,-1.8609 -3.9811,-2.78589 -6.59483,-2.78589 m -0.13476,-3.49179 c 3.70946,0 6.79591,1.25977 9.25547,3.76273 2.46839,2.51001 3.70452,5.65397 3.70452,9.43433 0,3.78107 -1.24707,6.90669 -3.74438,9.38918 -2.47756,2.4698 -5.61657,3.70558 -9.40188,3.70558 -3.62162,0 -6.63116,-1.23578 -9.04452,-3.70558 -2.40841,-2.48249 -3.60397,-5.58553 -3.60397,-9.32603 0,-3.82094 1.21038,-6.98747 3.63855,-9.49748 2.42146,-2.50296 5.48781,-3.7592 9.19621,-3.76273 m -109.87793,-1.18745 c 0,-2.04752 1.59421,-3.72075 3.64843,-3.72075 l 0.006,26.74726 c 0,2.05281 -1.58609,3.72075 -3.64137,3.72075 z m 129.06516,5.29413 c 0,-2.04928 1.5942,-3.7218 3.64701,-3.7218 l 0.0332,22.19254 h 7.81156 l 0.2981,0.005 c 1.86161,0 3.38596,1.45592 3.38596,3.32282 -10.74596,0.008 -10.75125,0.002 -10.75125,0.002 l -0.17322,-0.002 h -2.32163 c -1.01847,-0.0734 -1.85667,-0.90841 -1.91205,-1.93005 v -1.48343 z"
         style="fill:#6b8f00;fill-opacity:1;fill-rule:evenodd;stroke:none;stroke-width:0.352778" />
      <path
         id="path6"
         d="m 122.02568,83.851815 h -0.0275 c -0.57996,0.0018 -1.18392,0.0448 -1.80834,0.136525 -7.30461,1.082322 -9.85449,10.188222 -10.19527,11.906249 -1.31163,6.626581 -15.460135,9.916231 -20.343638,22.106821 -2.330802,5.80813 0.251531,13.29055 3.772253,16.89841 0.283633,0.29386 0.575028,0.58102 0.875947,0.86748 -1.980847,2.98238 -3.31858,6.42796 -3.603272,10.6807 -0.850194,12.71305 7.032625,18.99637 12.98293,22.88998 7.35224,4.79354 7.57943,1.07738 6.49993,0.44838 -0.35596,-0.20496 -1.84821,-0.88477 -3.78037,-2.13042 1.45733,-1.37266 13.87546,-12.20506 13.23375,-13.12334 -1.13665,-1.6263 -13.86346,10.39178 -15.30667,11.66495 -1.58362,-1.20509 -3.26884,-2.73579 -4.785079,-4.63832 1.702149,-1.23719 11.981739,-8.9027 11.355919,-9.74266 -0.83079,-1.09961 -11.343924,6.99346 -12.695416,7.88458 -1.224844,-1.87819 -2.244725,-4.04424 -2.8702,-6.53309 1.31057,-0.6089 8.471256,-3.36409 7.406566,-4.7438 -0.38241,-0.49813 -1.08126,-0.17816 -1.8041,0 -0.72037,0.1778 -5.913263,2.59327 -5.913263,2.59327 l -0.09278,0.17709 c -0.790222,-4.79037 -0.418041,-9.52147 1.453092,-13.62075 10.666591,8.55345 27.012541,12.37791 30.218591,24.45597 1.83973,6.94443 0.62406,11.54183 1.89336,12.80724 1.26259,1.26682 4.687,0.80786 4.687,-0.0917 0,-0.71402 0.36901,-14.72036 -13.16743,-25.71433 -5.03908,-4.13878 -11.45928,-7.84472 -19.21686,-13.8885 -0.5715,-0.44591 -1.194506,-1.01636 -1.82245,-1.68946 0.974725,-1.18251 2.1276,-2.25813 3.46675,-3.24449 7.03827,-5.13751 22.62787,-13.61758 22.69172,-24.8024 0.0109,-2.93934 -1.96144,-4.97099 -2.23414,-3.64701 -3.16477,15.60759 -16.84055,21.11939 -25.331561,29.98716 -3.249788,-4.42594 -5.688894,-11.66741 -0.564091,-19.87902 5.226402,-8.36789 13.819712,-10.31417 15.807622,-16.177332 1.18815,-3.513666 3.50449,-7.586133 7.89481,-8.249708 6.24346,-0.950383 6.01133,4.587875 4.63303,4.848578 -1.80058,-4.382558 -8.16151,-0.864306 -5.22146,3.63608 1.772,2.707217 5.46311,1.385711 6.36164,0.940859 0.90628,-0.448028 3.57399,-2.343503 4.47745,-3.063523 7.99289,-6.374341 23.11823,-7.68103 33.13465,-7.574491 2.44123,0.02611 4.05307,-0.287514 5.18196,-0.524933 -1.53776,-1.264708 -15.42803,-0.993422 -21.38257,-0.272697 -6.81461,0.8255 -16.69556,2.43593 -16.69556,2.43593 0,0 -3.46075,-4.014258 -9.16693,-4.014258"
         style="fill:#59178a;fill-opacity:1;fill-rule:evenodd;stroke:none;stroke-width:0.352778" />
    </g>
  </g>
</svg>
