<?xml version="1.0" encoding="UTF-8" standalone="no"?>
<!-- Generator: Adobe Illustrator 27.0.0, SVG Export Plug-In . SVG Version: 6.00 Build 0)  -->

<svg
   version="1.1"
   id="Layer_1"
   x="0px"
   y="0px"
   viewBox="0 0 500 500"
   style="enable-background:new 0 0 500 500;"
   xml:space="preserve"
   sodipodi:docname="Instituto de Ingeniería Unam Logo Vector.svg"
   inkscape:export-filename="ie-unam.png"
   inkscape:export-xdpi="300"
   inkscape:export-ydpi="300"
   inkscape:version="1.4.4 (dcaf3e7, 2026-05-05)"
   xmlns:inkscape="http://www.inkscape.org/namespaces/inkscape"
   xmlns:sodipodi="http://sodipodi.sourceforge.net/DTD/sodipodi-0.dtd"
   xmlns="http://www.w3.org/2000/svg"
   xmlns:svg="http://www.w3.org/2000/svg"><defs
   id="defs121" /><sodipodi:namedview
   id="namedview121"
   pagecolor="#ffffff"
   bordercolor="#000000"
   borderopacity="0.25"
   inkscape:showpageshadow="2"
   inkscape:pageopacity="0.0"
   inkscape:pagecheckerboard="0"
   inkscape:deskcolor="#d1d1d1"
   inkscape:zoom="1.172"
   inkscape:cx="250.42662"
   inkscape:cy="250"
   inkscape:window-width="1440"
   inkscape:window-height="830"
   inkscape:window-x="-6"
   inkscape:window-y="-6"
   inkscape:window-maximized="1"
   inkscape:current-layer="Layer_1" />
<g
   id="watermark_1_">
	<g
   id="g70">
		<g
   id="watermark"
   style="opacity:0.61;">
			<g
   id="g35">
				<g
   id="g24">
					<g
   id="g5">
						<g
   id="g1">
							<polygon
   style="fill:#FFFFFF;"
   points="213.765,461.172 208.204,474.017 205.268,474.017 199.726,461.172 202.938,461.172          206.846,470.347 210.81,461.172        "
   id="polygon1" />
						</g>
						<g
   id="g2">
							<path
   style="fill:#FFFFFF;"
   d="M223.507,469.741h-7.469c0.275,1.23,1.321,1.982,2.826,1.982c1.046,0,1.798-0.312,2.477-0.954         l1.523,1.651c-0.917,1.046-2.294,1.597-4.074,1.597c-3.413,0-5.634-2.147-5.634-5.083c0-2.954,2.257-5.083,5.267-5.083         c2.899,0,5.138,1.945,5.138,5.12C223.562,469.191,223.526,469.503,223.507,469.741 M216.002,468.071h4.863         c-0.202-1.248-1.138-2.055-2.422-2.055C217.139,466.016,216.204,466.805,216.002,468.071"
   id="path1" />
						</g>
						<g
   id="g3">
							<path
   style="fill:#FFFFFF;"
   d="M224.735,468.934c0-2.973,2.294-5.083,5.505-5.083c2.074,0,3.707,0.899,4.423,2.514         l-2.22,1.193c-0.532-0.936-1.321-1.358-2.221-1.358c-1.45,0-2.587,1.009-2.587,2.734c0,1.725,1.138,2.734,2.587,2.734         c0.899,0,1.688-0.404,2.221-1.358l2.22,1.211c-0.716,1.578-2.349,2.495-4.423,2.495         C227.029,474.017,224.735,471.907,224.735,468.934"
   id="path2" />
						</g>
						<g
   id="g4">
							<path
   style="fill:#FFFFFF;"
   d="M242.828,473.393c-0.587,0.422-1.45,0.624-2.331,0.624c-2.33,0-3.688-1.193-3.688-3.542         v-4.055h-1.523v-2.202h1.523v-2.404h2.863v2.404h2.459v2.202h-2.459v4.019c0,0.844,0.458,1.303,1.229,1.303         c0.422,0,0.844-0.128,1.156-0.367L242.828,473.393z"
   id="path3" />
						</g>
					</g>
					<g
   id="g6">
						<path
   style="fill:#FFFFFF;"
   d="M262.474,463.997v2.643c-0.238-0.018-0.422-0.037-0.642-0.037        c-1.578,0-2.624,0.862-2.624,2.753v4.661h-2.863v-9.873h2.734v1.303C259.776,464.493,260.951,463.997,262.474,463.997"
   id="path5" />
					</g>
					<g
   id="g7">
						<path
   style="fill:#FFFFFF;"
   d="M263.299,472.53l1.009-2.239c1.083,0.789,2.697,1.339,4.239,1.339        c1.762,0,2.477-0.587,2.477-1.376c0-2.404-7.469-0.752-7.469-5.524c0-2.184,1.762-4,5.413-4c1.615,0,3.267,0.385,4.459,1.138        l-0.918,2.257c-1.193-0.679-2.422-1.009-3.56-1.009c-1.761,0-2.44,0.66-2.44,1.468c0,2.367,7.468,0.734,7.468,5.45        c0,2.147-1.78,3.982-5.45,3.982C266.492,474.017,264.437,473.411,263.299,472.53"
   id="path6" />
					</g>
					<g
   id="g8">
						<path
   style="fill:#FFFFFF;"
   d="M285.428,469.741h-7.469c0.275,1.23,1.321,1.982,2.826,1.982c1.046,0,1.798-0.312,2.477-0.954        l1.523,1.651c-0.918,1.046-2.294,1.597-4.074,1.597c-3.413,0-5.634-2.147-5.634-5.083c0-2.954,2.257-5.083,5.267-5.083        c2.9,0,5.138,1.945,5.138,5.12C285.484,469.191,285.447,469.503,285.428,469.741 M277.923,468.071h4.863        c-0.202-1.248-1.138-2.055-2.422-2.055C279.061,466.016,278.125,466.805,277.923,468.071"
   id="path7" />
					</g>
					<g
   id="g9">
						<path
   style="fill:#FFFFFF;"
   d="M297.007,469.741h-7.469c0.275,1.23,1.321,1.982,2.826,1.982c1.046,0,1.798-0.312,2.477-0.954        l1.523,1.651c-0.918,1.046-2.294,1.597-4.074,1.597c-3.413,0-5.634-2.147-5.634-5.083c0-2.954,2.257-5.083,5.267-5.083        c2.899,0,5.138,1.945,5.138,5.12C297.062,469.191,297.025,469.503,297.007,469.741 M289.501,468.071h4.863        c-0.202-1.248-1.138-2.055-2.422-2.055C290.639,466.016,289.703,466.805,289.501,468.071"
   id="path8" />
					</g>
					<g
   id="g10">
						<polygon
   style="fill:#FFFFFF;"
   points="303.208,470.145 301.831,471.503 301.831,474.017 298.969,474.017 298.969,460.401         301.831,460.401 301.831,468.108 306.016,464.144 309.429,464.144 305.318,468.328 309.796,474.017 306.327,474.017       "
   id="polygon9" />
					</g>
					<g
   id="g11">
						<path
   style="fill:#FFFFFF;"
   d="M256.601,475.359L256.601,475.359l-2.86-2.86c-0.435,0.508-0.953,0.943-1.534,1.284        c-0.092,0.069-0.186,0.136-0.283,0.199l3.027,3.027c0.456,0.456,1.195,0.456,1.65,0        C257.057,476.554,257.057,475.815,256.601,475.359"
   id="path10" />
					</g>
					<g
   id="g12">
						<path
   style="fill:#FFFFFF;"
   d="M249.984,463.244c0.221-0.173,0.495-0.281,0.797-0.281c0.042,0,0.083,0.002,0.124,0.006        c-0.214-0.156-0.478-0.249-0.764-0.249c-0.395,0-0.744,0.18-0.981,0.458c-0.051,0-0.1,0.006-0.151,0.008        c0.039-0.077,0.064-0.162,0.064-0.255c0-0.234-0.143-0.434-0.346-0.519c0.087,0.126,0.138,0.279,0.138,0.445        c0,0.122-0.031,0.237-0.081,0.341c-2.811,0.201-5.03,2.539-5.03,5.4c0,2.993,2.426,5.42,5.42,5.42        c2.993,0,5.42-2.426,5.42-5.42C254.595,465.879,252.593,463.635,249.984,463.244 M247.983,464.656        c0.435,0,0.844,0.112,1.199,0.309c0.374-0.245,0.82-0.387,1.299-0.387c0.711,0,1.348,0.312,1.784,0.806        c-0.435-0.379-1.004-0.61-1.627-0.61c-0.449,0-0.87,0.12-1.234,0.329c-0.079,0.046-0.156,0.096-0.229,0.15        c-0.065-0.048-0.133-0.093-0.204-0.134c-0.369-0.219-0.8-0.344-1.26-0.344c-0.3,0-0.588,0.054-0.854,0.152        C247.196,464.754,247.578,464.656,247.983,464.656 M251.772,469.098c0.115,0.305,0.181,0.634,0.181,0.979        c0,1.534-1.244,2.777-2.778,2.777c-1.534,0-2.777-1.243-2.777-2.777c0-0.345,0.066-0.674,0.181-0.979        c-0.62-0.382-1.035-1.064-1.035-1.846c0-1.197,0.971-2.168,2.168-2.168c0.565,0,1.078,0.218,1.463,0.572        c0.386-0.354,0.899-0.572,1.464-0.572c1.197,0,2.168,0.971,2.168,2.168C252.807,468.034,252.392,468.716,251.772,469.098"
   id="path11" />
					</g>
					<g
   id="g13">
						<path
   style="fill:#FFFFFF;"
   d="M251.666,467.061c0,0.497-0.404,0.901-0.901,0.901c-0.497,0-0.901-0.404-0.901-0.901        s0.404-0.901,0.901-0.901c0.101,0,0.197,0.017,0.287,0.047c-0.03,0.062-0.045,0.132-0.045,0.204        c0,0.273,0.221,0.494,0.494,0.494c0.05,0,0.099-0.008,0.146-0.022C251.66,466.941,251.666,467,251.666,467.061"
   id="path12" />
					</g>
					<g
   id="g14">
						<path
   style="fill:#FFFFFF;"
   d="M248.255,467.061c0,0.376-0.305,0.681-0.681,0.681c-0.376,0-0.681-0.305-0.681-0.681        s0.305-0.681,0.681-0.681c0.076,0,0.149,0.013,0.217,0.035c-0.023,0.047-0.034,0.1-0.034,0.155        c0,0.206,0.167,0.374,0.374,0.374c0.038,0,0.075-0.006,0.11-0.017C248.25,466.97,248.255,467.015,248.255,467.061"
   id="path13" />
					</g>
					<g
   id="g23">
						<g
   id="g18">
							<g
   id="g15">
								<rect
   x="242.908"
   y="467.83"
   style="fill:#FFFFFF;"
   width="0.616"
   height="0.616"
   id="rect14" />
							</g>
							<g
   id="g16">
								<rect
   x="254.827"
   y="467.83"
   style="fill:#FFFFFF;"
   width="0.616"
   height="0.616"
   id="rect15" />
							</g>
							<g
   id="g17">
								<path
   style="fill:#FFFFFF;"
   d="M255.205,468.082h-0.14c0-3.248-2.642-5.89-5.89-5.89c-3.248,0-5.89,2.642-5.89,5.89h-0.14          c0-1.611,0.627-3.125,1.766-4.264c1.139-1.139,2.653-1.766,4.264-1.766c1.611,0,3.125,0.627,4.264,1.766          C254.578,464.957,255.205,466.471,255.205,468.082"
   id="path16" />
							</g>
						</g>
						<g
   id="g19">
							<rect
   x="248.868"
   y="461.814"
   style="fill:#FFFFFF;"
   width="0.616"
   height="0.616"
   id="rect18" />
						</g>
						<g
   id="g20">
							<rect
   x="244.95"
   y="462.052"
   style="fill:#FFFFFF;"
   width="8.45"
   height="0.14"
   id="rect19" />
						</g>
						<g
   id="g21">
							<path
   style="fill:#FFFFFF;"
   d="M245.174,462.15c0,0.108-0.088,0.196-0.196,0.196c-0.108,0-0.196-0.088-0.196-0.196         c0-0.108,0.088-0.196,0.196-0.196C245.086,461.954,245.174,462.042,245.174,462.15"
   id="path20" />
						</g>
						<g
   id="g22">
							<path
   style="fill:#FFFFFF;"
   d="M253.596,462.15c0,0.108-0.088,0.196-0.196,0.196c-0.108,0-0.196-0.088-0.196-0.196         c0-0.108,0.088-0.196,0.196-0.196C253.509,461.954,253.596,462.042,253.596,462.15"
   id="path21" />
						</g>
					</g>
				</g>
				<g
   id="g25">
					<path
   style="fill:#FFFFFF;"
   d="M314.356,473.409c0,1.559-2.364,1.559-2.364,0C311.993,471.851,314.356,471.851,314.356,473.409       z"
   id="path24" />
				</g>
				<g
   id="g34">
					<g
   id="g29">
						<g
   id="g26">
							<path
   style="fill:#FFFFFF;"
   d="M161.739,466.549l1.772,6.088l1.855-6.088h2.215l-2.823,8.14h-2.33l-0.837-2.396l-0.722-2.708         l-0.722,2.708l-0.837,2.396h-2.33l-2.839-8.14h2.231l1.855,6.088l1.756-6.088H161.739z"
   id="path25" />
						</g>
						<g
   id="g27">
							<path
   style="fill:#FFFFFF;"
   d="M176.713,466.549l1.772,6.088l1.855-6.088h2.215l-2.823,8.14h-2.33l-0.837-2.396l-0.722-2.708         l-0.722,2.708l-0.837,2.396h-2.33l-2.839-8.14h2.231l1.855,6.088l1.756-6.088H176.713z"
   id="path26" />
						</g>
						<g
   id="g28">
							<path
   style="fill:#FFFFFF;"
   d="M191.687,466.549l1.772,6.088l1.855-6.088h2.215l-2.823,8.14h-2.33l-0.837-2.396l-0.722-2.708         l-0.722,2.708l-0.837,2.396h-2.33l-2.839-8.14h2.231l1.855,6.088l1.756-6.088H191.687z"
   id="path27" />
						</g>
					</g>
					<g
   id="g30">
						<path
   style="fill:#FFFFFF;"
   d="M200.908,473.52c0,1.559-2.364,1.559-2.364,0C198.545,471.962,200.908,471.962,200.908,473.52z        "
   id="path29" />
					</g>
					<g
   id="g31">
						<path
   style="fill:#FFFFFF;"
   d="M322.71,473.409c-0.935,0.919-1.919,1.28-3.117,1.28c-2.346,0-4.3-1.411-4.3-4.282        s1.953-4.284,4.3-4.284c1.149,0,2.035,0.329,2.921,1.199l-1.264,1.329c-0.476-0.428-1.066-0.64-1.623-0.64        c-1.346,0-2.33,0.985-2.33,2.396c0,1.542,1.05,2.362,2.297,2.362c0.64,0,1.28-0.18,1.772-0.672L322.71,473.409z"
   id="path30" />
					</g>
					<g
   id="g32">
						<path
   style="fill:#FFFFFF;"
   d="M331.805,470.472c0,2.33-1.591,4.217-4.217,4.217c-2.626,0-4.201-1.887-4.201-4.217        c0-2.314,1.609-4.217,4.185-4.217C330.149,466.255,331.805,468.158,331.805,470.472z M325.389,470.472        c0,1.231,0.739,2.38,2.199,2.38c1.46,0,2.199-1.149,2.199-2.38c0-1.215-0.854-2.396-2.199-2.396        C326.144,468.077,325.389,469.258,325.389,470.472z"
   id="path31" />
					</g>
					<g
   id="g33">
						<path
   style="fill:#FFFFFF;"
   d="M338.572,474.689v-4.332c0-1.068-0.559-2.035-1.658-2.035c-1.082,0-1.722,0.967-1.722,2.035        v4.332h-2.003v-8.107h1.855l0.148,0.985c0.426-0.82,1.362-1.116,2.133-1.116c0.969,0,1.937,0.394,2.396,1.51        c0.723-1.149,1.658-1.478,2.708-1.478c2.297,0,3.43,1.412,3.43,3.84v4.365h-2.003v-4.365c0-1.066-0.442-1.97-1.526-1.97        c-1.082,0-1.756,0.935-1.756,2.003v4.332H338.572z"
   id="path32" />
					</g>
				</g>
			</g>
		</g>
		<g
   style="opacity:0.61;"
   id="g68">
			<g
   id="g50">
				<g
   id="g36">
					<path
   style="fill:#FFFFFF;"
   d="M345.988,431.299c-0.006-1.224-0.959-2.121-2.189-2.14c-0.924-0.014-0.832,0.12-0.834-0.867       c-0.003-1.097-0.007-2.194,0.003-3.292c0.003-0.379-0.112-0.691-0.362-0.976c-2.342-2.668-4.678-5.342-7.019-8.011       c-0.12-0.137-0.275-0.244-0.414-0.366c-6.214,0-12.427,0-18.641,0c-0.794,0.293-1.14,0.868-1.138,1.709       c0.01,3.748,0.004,7.496,0.004,11.243c0,0.556-0.003,0.589-0.55,0.551c-1.497-0.102-2.516,0.986-2.497,2.492       c0.044,3.476,0.013,6.953,0.014,10.429c0.001,1.58,0.867,2.443,2.45,2.449c0.582,0.002,0.582,0.002,0.582,0.6       c0,2.219-0.001,4.438,0.001,6.657c0.001,1.192,0.58,1.771,1.768,1.771c8.013,0.001,16.027,0.001,24.04,0       c1.168,0,1.755-0.583,1.757-1.745c0.002-2.256,0-4.512,0.001-6.768c0-0.512,0.002-0.511,0.52-0.515       c0.271-0.002,0.541,0.008,0.809-0.058c0.996-0.246,1.69-1.044,1.694-2.069C346.003,438.696,346.005,434.997,345.988,431.299z        M317.537,417.162c5.337,0,10.674,0,16.01,0c0.548,0,0.554,0.007,0.554,0.561c0.001,2.243-0.001,4.486,0.001,6.73       c0.001,0.811,0.249,1.059,1.06,1.059c1.91,0.001,3.821,0,5.731,0.001c0.458,0,0.479,0.021,0.481,0.483       c0.003,0.887,0.002,1.775,0,2.662c-0.001,0.477-0.024,0.498-0.504,0.499c-3.895,0.001-7.79,0-11.684,0       c-3.882,0-7.765,0-11.647,0c-0.55,0-0.552-0.001-0.552-0.561c-0.001-3.624-0.001-7.247,0-10.871       C316.987,417.166,316.991,417.162,317.537,417.162z M340.822,451.579c-3.883,0.001-7.766,0-11.65,0c-3.871,0-7.742,0-11.613,0       c-0.572,0-0.574-0.002-0.574-0.579c-0.001-1.997-0.001-3.994,0.001-5.991c0-0.464,0.023-0.486,0.478-0.487       c7.803-0.001,15.607-0.001,23.41,0c0.478,0,0.499,0.02,0.499,0.503c0.002,1.997,0.001,3.994,0,5.991       C341.375,451.574,341.37,451.579,340.822,451.579z"
   id="path35" />
				</g>
				<g
   id="g49">
					<g
   id="g37">
						<rect
   x="327.418"
   y="417.053"
   style="fill:#FFFFFF;"
   width="1.757"
   height="1.054"
   id="rect36" />
					</g>
					<g
   id="g38">
						<rect
   x="325.662"
   y="418.107"
   style="fill:#FFFFFF;"
   width="1.757"
   height="1.054"
   id="rect37" />
					</g>
					<g
   id="g39">
						<rect
   x="327.418"
   y="419.161"
   style="fill:#FFFFFF;"
   width="1.757"
   height="1.054"
   id="rect38" />
					</g>
					<g
   id="g40">
						<rect
   x="325.662"
   y="420.215"
   style="fill:#FFFFFF;"
   width="1.757"
   height="1.054"
   id="rect39" />
					</g>
					<g
   id="g41">
						<rect
   x="327.418"
   y="421.269"
   style="fill:#FFFFFF;"
   width="1.757"
   height="1.054"
   id="rect40" />
					</g>
					<g
   id="g42">
						<rect
   x="325.662"
   y="422.323"
   style="fill:#FFFFFF;"
   width="1.757"
   height="1.054"
   id="rect41" />
					</g>
					<g
   id="g43">
						<rect
   x="327.418"
   y="423.378"
   style="fill:#FFFFFF;"
   width="1.757"
   height="1.054"
   id="rect42" />
					</g>
					<g
   id="g44">
						<rect
   x="325.662"
   y="424.432"
   style="fill:#FFFFFF;"
   width="1.757"
   height="1.054"
   id="rect43" />
					</g>
					<g
   id="g45">
						<rect
   x="327.418"
   y="425.486"
   style="fill:#FFFFFF;"
   width="1.757"
   height="1.054"
   id="rect44" />
					</g>
					<g
   id="g46">
						<rect
   x="325.662"
   y="426.54"
   style="fill:#FFFFFF;"
   width="1.757"
   height="1.054"
   id="rect45" />
					</g>
					<g
   id="g47">
						<rect
   x="327.418"
   y="427.594"
   style="fill:#FFFFFF;"
   width="1.757"
   height="1.054"
   id="rect46" />
					</g>
					<g
   id="g48">
						<rect
   x="325.662"
   y="428.648"
   style="fill:#FFFFFF;"
   width="1.757"
   height="1.054"
   id="rect47" />
					</g>
				</g>
			</g>
			<g
   id="g51">
				<path
   style="fill:#FFFFFF;"
   d="M187.637,431.299c-0.006-1.224-0.959-2.121-2.189-2.14c-0.924-0.014-0.832,0.12-0.834-0.867      c-0.003-1.097-0.007-2.194,0.003-3.292c0.003-0.379-0.112-0.691-0.362-0.976c-2.342-2.668-4.678-5.342-7.019-8.011      c-0.12-0.137-0.275-0.244-0.414-0.366c-6.214,0-12.427,0-18.641,0c-0.794,0.293-1.14,0.868-1.138,1.709      c0.01,3.748,0.004,7.496,0.004,11.243c0,0.556-0.003,0.589-0.55,0.551c-1.497-0.102-2.516,0.986-2.497,2.492      c0.044,3.476,0.013,6.953,0.014,10.429c0.001,1.58,0.867,2.443,2.45,2.449c0.582,0.002,0.582,0.002,0.582,0.6      c0,2.219-0.001,4.438,0.001,6.657c0.001,1.192,0.58,1.771,1.768,1.771c8.013,0.001,16.027,0.001,24.04,0      c1.168,0,1.755-0.583,1.757-1.745c0.002-2.256,0-4.512,0.001-6.768c0-0.512,0.002-0.511,0.52-0.515      c0.271-0.002,0.541,0.008,0.809-0.058c0.996-0.246,1.69-1.044,1.694-2.069C187.652,438.696,187.655,434.997,187.637,431.299z       M159.187,417.162c5.337,0,10.674,0,16.01,0c0.548,0,0.554,0.007,0.554,0.561c0.001,2.243-0.001,4.486,0.001,6.73      c0.001,0.811,0.249,1.059,1.06,1.059c1.91,0.001,3.821,0,5.731,0.001c0.458,0,0.479,0.021,0.481,0.483      c0.003,0.887,0.002,1.775,0,2.662c-0.001,0.477-0.024,0.498-0.504,0.499c-3.895,0.001-7.79,0-11.684,0      c-3.882,0-7.765,0-11.647,0c-0.55,0-0.552-0.001-0.552-0.561c-0.001-3.624-0.001-7.247,0-10.871      C158.636,417.166,158.64,417.162,159.187,417.162z M182.472,451.579c-3.883,0.001-7.766,0-11.65,0c-3.871,0-7.742,0-11.613,0      c-0.572,0-0.574-0.002-0.574-0.579c-0.001-1.997-0.001-3.994,0.001-5.991c0-0.464,0.023-0.486,0.478-0.487      c7.803-0.001,15.607-0.001,23.41,0c0.478,0,0.499,0.02,0.499,0.503c0.002,1.997,0.001,3.994,0,5.991      C183.024,451.574,183.019,451.579,182.472,451.579z"
   id="path50" />
			</g>
			<g
   id="g53">
				<path
   style="fill:#FFFFFF;"
   d="M159.779,440.669v-7.897h2.779c0.375,0,0.726,0.061,1.053,0.182      c0.327,0.121,0.612,0.292,0.855,0.513c0.242,0.221,0.434,0.483,0.573,0.789c0.14,0.305,0.21,0.642,0.21,1.009      c0,0.375-0.07,0.715-0.21,1.02c-0.14,0.305-0.331,0.568-0.573,0.789c-0.243,0.221-0.528,0.392-0.855,0.513      c-0.327,0.121-0.678,0.182-1.053,0.182h-1.29v2.901H159.779z M162.58,436.356c0.39,0,0.684-0.111,0.882-0.331      c0.199-0.22,0.298-0.474,0.298-0.761c0-0.14-0.024-0.276-0.072-0.408c-0.048-0.132-0.121-0.248-0.221-0.347      c-0.099-0.099-0.223-0.178-0.37-0.237c-0.147-0.059-0.32-0.089-0.518-0.089h-1.312v2.173H162.58z"
   id="path51" />
				<path
   style="fill:#FFFFFF;"
   d="M166.308,432.771h1.731l3.177,5.294h0.088l-0.088-1.522v-3.772h1.478v7.897h-1.566l-3.353-5.592      h-0.088l0.088,1.522v4.07h-1.467V432.771z"
   id="path52" />
				<path
   style="fill:#FFFFFF;"
   d="M177.922,436.334h3.872c0.022,0.089,0.04,0.195,0.055,0.32c0.014,0.125,0.022,0.25,0.022,0.375      c0,0.507-0.077,0.985-0.231,1.434c-0.154,0.449-0.397,0.849-0.728,1.202c-0.353,0.375-0.776,0.666-1.268,0.871      c-0.493,0.206-1.055,0.309-1.688,0.309c-0.574,0-1.114-0.103-1.622-0.309c-0.507-0.206-0.948-0.492-1.323-0.86      c-0.375-0.367-0.673-0.803-0.894-1.307c-0.221-0.504-0.331-1.053-0.331-1.649c0-0.595,0.11-1.145,0.331-1.649      c0.221-0.504,0.518-0.939,0.894-1.307c0.375-0.367,0.816-0.654,1.323-0.86c0.507-0.206,1.048-0.309,1.622-0.309      c0.64,0,1.211,0.11,1.715,0.331c0.504,0.221,0.935,0.526,1.296,0.915l-1.025,1.004c-0.258-0.272-0.544-0.48-0.861-0.623      c-0.316-0.143-0.695-0.215-1.136-0.215c-0.361,0-0.703,0.065-1.026,0.193c-0.324,0.129-0.607,0.311-0.85,0.546      c-0.242,0.235-0.436,0.52-0.579,0.855c-0.143,0.335-0.215,0.708-0.215,1.119c0,0.412,0.072,0.785,0.215,1.12      c0.143,0.335,0.338,0.62,0.584,0.855c0.246,0.235,0.531,0.418,0.855,0.546c0.323,0.129,0.669,0.193,1.037,0.193      c0.419,0,0.773-0.061,1.064-0.182c0.29-0.121,0.538-0.278,0.744-0.469c0.148-0.132,0.275-0.3,0.381-0.502      c0.106-0.202,0.189-0.428,0.248-0.678h-2.482V436.334z"
   id="path53" />
			</g>
			<g
   id="g54">
				<path
   style="fill:#FFFFFF;"
   d="M224.019,431.299c-0.006-1.224-0.959-2.121-2.189-2.14c-0.924-0.014-0.832,0.12-0.834-0.867      c-0.003-1.097-0.007-2.194,0.003-3.292c0.003-0.379-0.112-0.691-0.362-0.976c-2.342-2.668-4.678-5.342-7.019-8.011      c-0.12-0.137-0.275-0.244-0.414-0.366c-6.214,0-12.427,0-18.641,0c-0.794,0.293-1.14,0.868-1.138,1.709      c0.01,3.748,0.004,7.496,0.004,11.243c0,0.556-0.003,0.589-0.55,0.551c-1.497-0.102-2.516,0.986-2.497,2.492      c0.044,3.476,0.013,6.953,0.014,10.429c0.001,1.58,0.867,2.443,2.45,2.449c0.582,0.002,0.582,0.002,0.582,0.6      c0,2.219-0.001,4.438,0.001,6.657c0.001,1.192,0.58,1.771,1.768,1.771c8.013,0.001,16.027,0.001,24.04,0      c1.168,0,1.755-0.583,1.757-1.745c0.002-2.256,0-4.512,0.001-6.768c0-0.512,0.002-0.511,0.52-0.515      c0.271-0.002,0.541,0.008,0.809-0.058c0.997-0.246,1.69-1.044,1.694-2.069C224.034,438.696,224.036,434.997,224.019,431.299z       M195.568,417.162c5.337,0,10.674,0,16.01,0c0.548,0,0.554,0.007,0.554,0.561c0.001,2.243-0.001,4.486,0.001,6.73      c0.001,0.811,0.249,1.059,1.06,1.059c1.91,0.001,3.821,0,5.731,0.001c0.458,0,0.479,0.021,0.481,0.483      c0.003,0.887,0.002,1.775,0,2.662c-0.001,0.477-0.024,0.498-0.504,0.499c-3.895,0.001-7.79,0-11.684,0      c-3.882,0-7.765,0-11.647,0c-0.55,0-0.552-0.001-0.552-0.561c-0.001-3.624-0.001-7.247,0-10.871      C195.018,417.166,195.022,417.162,195.568,417.162z M218.854,451.579c-3.883,0.001-7.766,0-11.65,0c-3.871,0-7.742,0-11.613,0      c-0.572,0-0.574-0.002-0.574-0.579c-0.001-1.997-0.001-3.994,0.001-5.991c0-0.464,0.023-0.486,0.478-0.487      c7.803-0.001,15.607-0.001,23.41,0c0.478,0,0.499,0.02,0.499,0.503c0.002,1.997,0.001,3.994,0,5.991      C219.406,451.574,219.401,451.579,218.854,451.579z"
   id="path54" />
			</g>
			<g
   id="g56">
				<path
   style="fill:#FFFFFF;"
   d="M205.111,432.771h1.699l2.967,7.897h-1.644l-0.651-1.886h-3.044l-0.651,1.886h-1.643      L205.111,432.771z M206.997,437.415l-0.706-1.974l-0.287-0.96h-0.088l-0.287,0.96l-0.706,1.974H206.997z"
   id="path55" />
				<path
   style="fill:#FFFFFF;"
   d="M211.331,434.536c-0.125,0-0.245-0.024-0.359-0.072c-0.114-0.048-0.213-0.114-0.298-0.199      c-0.084-0.084-0.151-0.182-0.198-0.292c-0.048-0.11-0.072-0.232-0.072-0.364s0.024-0.254,0.072-0.364      c0.048-0.11,0.114-0.208,0.198-0.292c0.084-0.084,0.184-0.151,0.298-0.198c0.114-0.048,0.233-0.072,0.359-0.072      c0.257,0,0.478,0.09,0.662,0.27c0.184,0.181,0.276,0.399,0.276,0.656s-0.092,0.476-0.276,0.656      C211.809,434.446,211.589,434.536,211.331,434.536z M210.615,440.669v-5.404h1.445v5.404H210.615z"
   id="path56" />
			</g>
			<g
   id="g57">
				<path
   style="fill:#FFFFFF;"
   d="M261.044,431.299c-0.006-1.224-0.959-2.121-2.189-2.14c-0.924-0.014-0.832,0.12-0.834-0.867      c-0.003-1.097-0.007-2.194,0.003-3.292c0.003-0.379-0.112-0.691-0.362-0.976c-2.342-2.668-4.678-5.342-7.019-8.011      c-0.12-0.137-0.275-0.244-0.414-0.366c-6.214,0-12.427,0-18.641,0c-0.794,0.293-1.14,0.868-1.138,1.709      c0.01,3.748,0.004,7.496,0.004,11.243c0,0.556-0.003,0.589-0.55,0.551c-1.497-0.102-2.516,0.986-2.497,2.492      c0.044,3.476,0.013,6.953,0.014,10.429c0.001,1.58,0.867,2.443,2.45,2.449c0.582,0.002,0.582,0.002,0.582,0.6      c0,2.219-0.001,4.438,0.001,6.657c0.001,1.192,0.58,1.771,1.768,1.771c8.013,0.001,16.027,0.001,24.04,0      c1.168,0,1.755-0.583,1.757-1.745c0.002-2.256,0-4.512,0.001-6.768c0-0.512,0.002-0.511,0.52-0.515      c0.271-0.002,0.541,0.008,0.809-0.058c0.996-0.246,1.69-1.044,1.694-2.069C261.059,438.696,261.061,434.997,261.044,431.299z       M232.593,417.162c5.337,0,10.674,0,16.01,0c0.548,0,0.554,0.007,0.554,0.561c0.001,2.243-0.001,4.486,0.001,6.73      c0.001,0.811,0.249,1.059,1.06,1.059c1.91,0.001,3.821,0,5.731,0.001c0.458,0,0.479,0.021,0.481,0.483      c0.003,0.887,0.002,1.775,0,2.662c-0.001,0.477-0.024,0.498-0.504,0.499c-3.895,0.001-7.79,0-11.684,0      c-3.882,0-7.765,0-11.647,0c-0.55,0-0.552-0.001-0.552-0.561c-0.001-3.624-0.001-7.247,0-10.871      C232.042,417.166,232.047,417.162,232.593,417.162z M255.878,451.579c-3.883,0.001-7.766,0-11.65,0c-3.871,0-7.742,0-11.613,0      c-0.572,0-0.574-0.002-0.574-0.579c-0.001-1.997-0.001-3.994,0.001-5.991c0-0.464,0.023-0.486,0.478-0.487      c7.803-0.001,15.607-0.001,23.41,0c0.478,0,0.499,0.02,0.499,0.503c0.002,1.997,0.001,3.994,0,5.991      C256.431,451.574,256.426,451.579,255.878,451.579z"
   id="path57" />
			</g>
			<g
   id="g60">
				<path
   style="fill:#FFFFFF;"
   d="M236.361,440.845c-0.338,0-0.662-0.048-0.971-0.143c-0.309-0.095-0.592-0.239-0.849-0.43      c-0.257-0.191-0.481-0.425-0.673-0.7c-0.191-0.276-0.342-0.597-0.452-0.965l1.401-0.551c0.103,0.397,0.283,0.726,0.54,0.987      c0.257,0.261,0.596,0.392,1.015,0.392c0.154,0,0.303-0.02,0.447-0.061c0.143-0.04,0.272-0.099,0.386-0.176      s0.204-0.175,0.27-0.292c0.066-0.118,0.099-0.254,0.099-0.408c0-0.147-0.026-0.279-0.077-0.397      c-0.051-0.117-0.138-0.227-0.259-0.331c-0.121-0.103-0.28-0.202-0.475-0.298c-0.195-0.095-0.435-0.195-0.722-0.298l-0.485-0.176      c-0.213-0.073-0.429-0.173-0.645-0.298c-0.217-0.125-0.413-0.276-0.59-0.452c-0.177-0.176-0.322-0.384-0.436-0.623      c-0.114-0.239-0.171-0.509-0.171-0.81c0-0.309,0.06-0.597,0.182-0.866c0.121-0.268,0.294-0.503,0.518-0.706      c0.224-0.202,0.492-0.36,0.805-0.474s0.66-0.171,1.042-0.171c0.397,0,0.74,0.053,1.031,0.16      c0.291,0.107,0.537,0.243,0.739,0.408c0.202,0.165,0.366,0.348,0.491,0.546c0.125,0.199,0.217,0.386,0.276,0.563l-1.312,0.551      c-0.074-0.221-0.208-0.419-0.402-0.596c-0.195-0.176-0.462-0.265-0.8-0.265c-0.324,0-0.592,0.075-0.805,0.226      c-0.213,0.151-0.32,0.348-0.32,0.59c0,0.235,0.103,0.436,0.309,0.601c0.206,0.165,0.533,0.325,0.982,0.48l0.497,0.165      c0.316,0.111,0.605,0.237,0.866,0.381c0.261,0.143,0.485,0.314,0.673,0.513c0.187,0.199,0.331,0.425,0.43,0.678      c0.1,0.254,0.149,0.546,0.149,0.877c0,0.412-0.083,0.767-0.248,1.064c-0.165,0.298-0.377,0.542-0.634,0.734      c-0.258,0.191-0.548,0.335-0.872,0.43C236.986,440.797,236.67,440.845,236.361,440.845z"
   id="path58" />
				<path
   style="fill:#FFFFFF;"
   d="M239.516,432.771h1.61l1.633,4.754l0.287,1.015h0.088l0.309-1.015l1.699-4.754h1.61l-2.879,7.897      h-1.566L239.516,432.771z"
   id="path59" />
				<path
   style="fill:#FFFFFF;"
   d="M251.097,436.334h3.871c0.022,0.089,0.04,0.195,0.055,0.32c0.015,0.125,0.023,0.25,0.023,0.375      c0,0.507-0.078,0.985-0.232,1.434c-0.154,0.449-0.397,0.849-0.728,1.202c-0.353,0.375-0.775,0.666-1.268,0.871      c-0.493,0.206-1.055,0.309-1.688,0.309c-0.574,0-1.114-0.103-1.621-0.309c-0.507-0.206-0.949-0.492-1.324-0.86      c-0.375-0.367-0.673-0.803-0.894-1.307c-0.22-0.504-0.331-1.053-0.331-1.649c0-0.595,0.11-1.145,0.331-1.649      c0.221-0.504,0.518-0.939,0.894-1.307c0.375-0.367,0.816-0.654,1.324-0.86c0.507-0.206,1.047-0.309,1.621-0.309      c0.64,0,1.211,0.11,1.715,0.331c0.504,0.221,0.936,0.526,1.296,0.915l-1.026,1.004c-0.257-0.272-0.544-0.48-0.861-0.623      c-0.316-0.143-0.694-0.215-1.136-0.215c-0.36,0-0.702,0.065-1.026,0.193c-0.323,0.129-0.607,0.311-0.849,0.546      c-0.243,0.235-0.436,0.52-0.579,0.855c-0.143,0.335-0.215,0.708-0.215,1.119c0,0.412,0.072,0.785,0.215,1.12      c0.143,0.335,0.338,0.62,0.585,0.855c0.246,0.235,0.531,0.418,0.854,0.546c0.324,0.129,0.669,0.193,1.037,0.193      c0.419,0,0.774-0.061,1.064-0.182c0.29-0.121,0.539-0.278,0.745-0.469c0.147-0.132,0.274-0.3,0.38-0.502      c0.107-0.202,0.189-0.428,0.248-0.678h-2.482V436.334z"
   id="path60" />
			</g>
			<g
   id="g61">
				<path
   style="fill:#FFFFFF;"
   d="M297.3,431.299c-0.006-1.224-0.959-2.121-2.189-2.14c-0.924-0.014-0.832,0.12-0.834-0.867      c-0.003-1.097-0.007-2.194,0.003-3.292c0.003-0.379-0.112-0.691-0.362-0.976c-2.342-2.668-4.678-5.342-7.019-8.011      c-0.12-0.137-0.275-0.244-0.414-0.366c-6.214,0-12.427,0-18.641,0c-0.794,0.293-1.14,0.868-1.138,1.709      c0.01,3.748,0.004,7.496,0.004,11.243c0,0.556-0.003,0.589-0.55,0.551c-1.497-0.102-2.516,0.986-2.497,2.492      c0.044,3.476,0.013,6.953,0.014,10.429c0.001,1.58,0.867,2.443,2.45,2.449c0.582,0.002,0.582,0.002,0.582,0.6      c0,2.219-0.001,4.438,0.001,6.657c0.001,1.192,0.58,1.771,1.768,1.771c8.013,0.001,16.027,0.001,24.04,0      c1.168,0,1.755-0.583,1.757-1.745c0.002-2.256,0-4.512,0.001-6.768c0-0.512,0.002-0.511,0.52-0.515      c0.271-0.002,0.541,0.008,0.809-0.058c0.996-0.246,1.69-1.044,1.694-2.069C297.315,438.696,297.318,434.997,297.3,431.299z       M268.85,417.162c5.337,0,10.674,0,16.01,0c0.548,0,0.554,0.007,0.554,0.561c0.001,2.243-0.001,4.486,0.001,6.73      c0.001,0.811,0.249,1.059,1.06,1.059c1.91,0.001,3.821,0,5.731,0.001c0.458,0,0.479,0.021,0.481,0.483      c0.003,0.887,0.002,1.775,0,2.662c-0.001,0.477-0.024,0.498-0.504,0.499c-3.895,0.001-7.79,0-11.684,0      c-3.882,0-7.765,0-11.647,0c-0.55,0-0.552-0.001-0.552-0.561c-0.001-3.624-0.001-7.247,0-10.871      C268.299,417.166,268.303,417.162,268.85,417.162z M292.135,451.579c-3.883,0.001-7.766,0-11.65,0c-3.871,0-7.742,0-11.613,0      c-0.572,0-0.574-0.002-0.574-0.579c-0.001-1.997-0.001-3.994,0.001-5.991c0-0.464,0.023-0.486,0.478-0.487      c7.803-0.001,15.607-0.001,23.41,0c0.478,0,0.499,0.02,0.499,0.503c0.001,1.997,0.001,3.994,0,5.991      C292.687,451.574,292.682,451.579,292.135,451.579z"
   id="path61" />
			</g>
			<g
   id="g64">
				<path
   style="fill:#FFFFFF;"
   d="M272.966,434.183v1.831h3.165v1.412h-3.165v1.831h3.518v1.412h-5.007v-7.897h5.007v1.412H272.966      z"
   id="path62" />
				<path
   style="fill:#FFFFFF;"
   d="M277.852,440.669v-7.897h2.779c0.375,0,0.726,0.061,1.053,0.182      c0.327,0.121,0.612,0.292,0.855,0.513c0.243,0.221,0.434,0.483,0.574,0.789c0.14,0.305,0.209,0.642,0.209,1.009      c0,0.375-0.07,0.715-0.209,1.02c-0.14,0.305-0.331,0.568-0.574,0.789c-0.243,0.221-0.528,0.392-0.855,0.513      c-0.327,0.121-0.678,0.182-1.053,0.182h-1.29v2.901H277.852z M280.653,436.356c0.389,0,0.684-0.111,0.882-0.331      c0.199-0.22,0.298-0.474,0.298-0.761c0-0.14-0.024-0.276-0.072-0.408c-0.048-0.132-0.121-0.248-0.221-0.347      c-0.099-0.099-0.222-0.178-0.37-0.237c-0.147-0.059-0.32-0.089-0.518-0.089h-1.312v2.173H280.653z"
   id="path63" />
				<path
   style="fill:#FFFFFF;"
   d="M286.797,440.845c-0.338,0-0.662-0.048-0.971-0.143c-0.309-0.095-0.592-0.239-0.849-0.43      c-0.257-0.191-0.482-0.425-0.673-0.7c-0.191-0.276-0.342-0.597-0.452-0.965l1.401-0.551c0.103,0.397,0.283,0.726,0.541,0.987      c0.257,0.261,0.595,0.392,1.015,0.392c0.154,0,0.303-0.02,0.447-0.061c0.143-0.04,0.272-0.099,0.386-0.176      c0.114-0.077,0.204-0.175,0.27-0.292c0.066-0.118,0.1-0.254,0.1-0.408c0-0.147-0.026-0.279-0.077-0.397      c-0.051-0.117-0.138-0.227-0.259-0.331c-0.121-0.103-0.279-0.202-0.474-0.298c-0.195-0.095-0.436-0.195-0.723-0.298      l-0.485-0.176c-0.213-0.073-0.428-0.173-0.645-0.298c-0.217-0.125-0.414-0.276-0.59-0.452c-0.176-0.176-0.322-0.384-0.436-0.623      c-0.114-0.239-0.171-0.509-0.171-0.81c0-0.309,0.061-0.597,0.182-0.866c0.121-0.268,0.294-0.503,0.518-0.706      c0.224-0.202,0.493-0.36,0.805-0.474c0.312-0.114,0.66-0.171,1.042-0.171c0.397,0,0.741,0.053,1.031,0.16      c0.29,0.107,0.537,0.243,0.739,0.408c0.202,0.165,0.365,0.348,0.491,0.546c0.125,0.199,0.217,0.386,0.276,0.563l-1.312,0.551      c-0.074-0.221-0.208-0.419-0.403-0.596c-0.195-0.176-0.462-0.265-0.799-0.265c-0.324,0-0.592,0.075-0.805,0.226      c-0.213,0.151-0.32,0.348-0.32,0.59c0,0.235,0.103,0.436,0.309,0.601c0.206,0.165,0.533,0.325,0.982,0.48l0.496,0.165      c0.316,0.111,0.605,0.237,0.866,0.381c0.261,0.143,0.485,0.314,0.673,0.513c0.187,0.199,0.331,0.425,0.43,0.678      c0.099,0.254,0.149,0.546,0.149,0.877c0,0.412-0.083,0.767-0.248,1.064c-0.165,0.298-0.377,0.542-0.634,0.734      c-0.258,0.191-0.548,0.335-0.872,0.43C287.422,440.797,287.105,440.845,286.797,440.845z"
   id="path64" />
			</g>
			<g
   id="g67">
				<path
   style="fill:#FFFFFF;"
   d="M321.394,439.168l4.004-4.985h-3.827v-1.412h5.559v1.5l-3.96,4.985h4.004v1.412h-5.779V439.168z"
   id="path65" />
				<path
   style="fill:#FFFFFF;"
   d="M328.409,432.771h1.489v7.897h-1.489V432.771z"
   id="path66" />
				<path
   style="fill:#FFFFFF;"
   d="M331.486,440.669v-7.897h2.779c0.375,0,0.726,0.061,1.053,0.182      c0.327,0.121,0.612,0.292,0.855,0.513s0.434,0.483,0.574,0.789c0.14,0.305,0.209,0.642,0.209,1.009      c0,0.375-0.07,0.715-0.209,1.02c-0.14,0.305-0.331,0.568-0.574,0.789c-0.243,0.221-0.528,0.392-0.855,0.513      c-0.327,0.121-0.678,0.182-1.053,0.182h-1.29v2.901H331.486z M334.288,436.356c0.389,0,0.684-0.111,0.882-0.331      c0.199-0.22,0.298-0.474,0.298-0.761c0-0.14-0.024-0.276-0.072-0.408c-0.048-0.132-0.121-0.248-0.221-0.347      c-0.099-0.099-0.222-0.178-0.37-0.237c-0.147-0.059-0.32-0.089-0.518-0.089h-1.312v2.173H334.288z"
   id="path67" />
			</g>
		</g>
		<g
   style="opacity:0.61;"
   id="g69">
			<path
   style="fill:#FFFFFF;"
   d="M300.133,433.27h9.067v2.242h-9.067V433.27z M300.133,437.136h9.067v2.243h-9.067V437.136z"
   id="path68" />
		</g>
	</g>
	<g
   style="opacity:0.61;"
   id="g91">
		<path
   style="fill:#FFFFFF;"
   d="M156.756,478.878h1.607c1.263,0,2.114,0.812,2.114,1.974c0,1.161-0.851,1.973-2.114,1.973h-1.607    V478.878z M158.34,482.464c1.049,0,1.725-0.665,1.725-1.612c0-0.947-0.677-1.613-1.725-1.613h-1.167v3.225H158.34z"
   id="path70" />
		<path
   style="fill:#FFFFFF;"
   d="M165.139,480.851c0-1.15,0.879-2.007,2.075-2.007c1.184,0,2.069,0.851,2.069,2.007    c0,1.156-0.885,2.007-2.069,2.007C166.019,482.858,165.139,482.002,165.139,480.851z M168.866,480.851    c0-0.942-0.705-1.635-1.652-1.635c-0.953,0-1.663,0.693-1.663,1.635c0,0.941,0.71,1.635,1.663,1.635    C168.162,482.486,168.866,481.793,168.866,480.851z"
   id="path71" />
		<path
   style="fill:#FFFFFF;"
   d="M179.596,478.878l-1.331,3.947h-0.44l-1.156-3.366l-1.161,3.366h-0.434l-1.331-3.947h0.429    l1.139,3.394l1.178-3.394h0.389l1.161,3.411l1.156-3.411H179.596z"
   id="path72" />
		<path
   style="fill:#FFFFFF;"
   d="M187.731,478.878v3.947h-0.344l-2.537-3.202v3.202h-0.417v-3.947h0.344l2.543,3.203v-3.203H187.731    z"
   id="path73" />
		<path
   style="fill:#FFFFFF;"
   d="M193.093,478.878h0.417v3.586h2.21v0.361h-2.627V478.878z"
   id="path74" />
		<path
   style="fill:#FFFFFF;"
   d="M200.061,480.851c0-1.15,0.879-2.007,2.075-2.007c1.184,0,2.069,0.851,2.069,2.007    c0,1.156-0.885,2.007-2.069,2.007C200.941,482.858,200.061,482.002,200.061,480.851z M203.788,480.851    c0-0.942-0.705-1.635-1.652-1.635c-0.953,0-1.663,0.693-1.663,1.635c0,0.941,0.71,1.635,1.663,1.635    C203.083,482.486,203.788,481.793,203.788,480.851z"
   id="path75" />
		<path
   style="fill:#FFFFFF;"
   d="M211.636,481.77h-2.199l-0.474,1.054h-0.434l1.804-3.947h0.412l1.804,3.947h-0.44L211.636,481.77z     M211.484,481.432l-0.947-2.12l-0.947,2.12H211.484z"
   id="path76" />
		<path
   style="fill:#FFFFFF;"
   d="M217.28,478.878h1.607c1.263,0,2.114,0.812,2.114,1.974c0,1.161-0.851,1.973-2.114,1.973h-1.607    V478.878z M218.864,482.464c1.049,0,1.725-0.665,1.725-1.612c0-0.947-0.677-1.613-1.725-1.613h-1.167v3.225H218.864z"
   id="path77" />
		<path
   style="fill:#FFFFFF;"
   d="M234.041,481.77h-2.199l-0.474,1.054h-0.434l1.804-3.947h0.412l1.804,3.947h-0.44L234.041,481.77z     M233.889,481.432l-0.947-2.12l-0.947,2.12H233.889z"
   id="path78" />
		<path
   style="fill:#FFFFFF;"
   d="M239.685,478.878h0.417v3.586h2.21v0.361h-2.627V478.878z"
   id="path79" />
		<path
   style="fill:#FFFFFF;"
   d="M247.082,478.878h0.417v3.586h2.21v0.361h-2.627V478.878z"
   id="path80" />
		<path
   style="fill:#FFFFFF;"
   d="M260.449,479.239v1.551h2.041v0.361h-2.041v1.675h-0.417v-3.947h2.706v0.361H260.449z"
   id="path81" />
		<path
   style="fill:#FFFFFF;"
   d="M267.678,478.878h0.417v3.947h-0.417V478.878z"
   id="path82" />
		<path
   style="fill:#FFFFFF;"
   d="M273.456,478.878h0.417v3.586h2.21v0.361h-2.627V478.878z"
   id="path83" />
		<path
   style="fill:#FFFFFF;"
   d="M283.644,482.464v0.361h-2.791v-3.947h2.706v0.361h-2.289v1.404h2.041v0.355h-2.041v1.466H283.644z    "
   id="path84" />
		<path
   style="fill:#FFFFFF;"
   d="M294.672,479.239v1.551h2.041v0.361h-2.041v1.675h-0.417v-3.947h2.706v0.361H294.672z"
   id="path85" />
		<path
   style="fill:#FFFFFF;"
   d="M301.5,480.851c0-1.15,0.879-2.007,2.075-2.007c1.184,0,2.069,0.851,2.069,2.007    c0,1.156-0.885,2.007-2.069,2.007C302.379,482.858,301.5,482.002,301.5,480.851z M305.226,480.851    c0-0.942-0.705-1.635-1.652-1.635c-0.953,0-1.663,0.693-1.663,1.635c0,0.941,0.71,1.635,1.663,1.635    C304.522,482.486,305.226,481.793,305.226,480.851z"
   id="path86" />
		<path
   style="fill:#FFFFFF;"
   d="M313.351,482.825l-0.902-1.269c-0.102,0.011-0.203,0.017-0.316,0.017h-1.06v1.252h-0.417v-3.947    h1.477c1.004,0,1.613,0.507,1.613,1.353c0,0.62-0.327,1.054-0.902,1.24l0.964,1.353H313.351z M313.328,480.231    c0-0.632-0.417-0.992-1.207-0.992h-1.048v1.979h1.048C312.911,481.218,313.328,480.851,313.328,480.231z"
   id="path87" />
		<path
   style="fill:#FFFFFF;"
   d="M322.907,478.878v3.947h-0.4v-3.158l-1.551,2.656h-0.197l-1.551-2.639v3.14h-0.4v-3.947h0.344    l1.714,2.926l1.697-2.926H322.907z"
   id="path88" />
		<path
   style="fill:#FFFFFF;"
   d="M330.744,481.77h-2.199l-0.473,1.054h-0.434l1.804-3.947h0.411l1.804,3.947h-0.44L330.744,481.77z     M330.592,481.432l-0.947-2.12l-0.947,2.12H330.592z"
   id="path89" />
		<path
   style="fill:#FFFFFF;"
   d="M336.957,479.239h-1.387v-0.361h3.192v0.361h-1.387v3.586h-0.417V479.239z"
   id="path90" />
		<path
   style="fill:#FFFFFF;"
   d="M343.063,482.346l0.164-0.321c0.282,0.276,0.784,0.479,1.302,0.479c0.739,0,1.06-0.31,1.06-0.699    c0-1.083-2.43-0.417-2.43-1.877c0-0.581,0.451-1.083,1.455-1.083c0.446,0,0.908,0.13,1.224,0.35l-0.141,0.333    c-0.338-0.22-0.733-0.327-1.083-0.327c-0.722,0-1.043,0.321-1.043,0.716c0,1.083,2.43,0.429,2.43,1.866    c0,0.581-0.462,1.077-1.472,1.077C343.937,482.858,343.356,482.65,343.063,482.346z"
   id="path91" />
	</g>
</g>
<g
   id="g92">
</g>
<g
   id="g121">
	<g
   id="g112">
		<path
   style="fill:#1A171B;"
   d="M191.811,171.117h7.043v34.922h-7.043V171.117z"
   id="path92" />
		<path
   style="fill:#1A171B;"
   d="M220.717,195.034h0.098v-23.917h6.456v34.922h-8.021l-8.608-24.455h-0.098v24.455h-6.456v-34.922    h8.119L220.717,195.034z"
   id="path93" />
		<path
   style="fill:#1A171B;"
   d="M237.835,196.159c0,0.816,0.065,1.558,0.196,2.225c0.13,0.669,0.375,1.231,0.734,1.688    c0.358,0.457,0.839,0.815,1.443,1.076c0.603,0.261,1.361,0.391,2.274,0.391c1.076,0,2.046-0.35,2.91-1.051    c0.864-0.701,1.296-1.785,1.296-3.253c0-0.782-0.106-1.459-0.318-2.03c-0.212-0.57-0.562-1.084-1.051-1.541    c-0.489-0.456-1.133-0.872-1.932-1.247c-0.8-0.375-1.786-0.758-2.959-1.149c-1.565-0.521-2.919-1.092-4.06-1.712    c-1.142-0.619-2.096-1.345-2.861-2.177c-0.766-0.832-1.329-1.793-1.687-2.886c-0.359-1.092-0.538-2.355-0.538-3.79    c0-3.456,0.961-6.032,2.885-7.728c1.924-1.695,4.565-2.544,7.924-2.544c1.565,0,3.008,0.171,4.329,0.513    c1.32,0.343,2.462,0.897,3.424,1.663c0.961,0.766,1.712,1.745,2.25,2.935c0.538,1.191,0.807,2.617,0.807,4.28v0.979h-6.75    c0-1.663-0.294-2.942-0.88-3.84c-0.587-0.896-1.565-1.345-2.935-1.345c-0.783,0-1.435,0.115-1.956,0.343    c-0.522,0.228-0.938,0.53-1.247,0.904c-0.31,0.375-0.522,0.807-0.636,1.296c-0.115,0.489-0.171,0.995-0.171,1.516    c0,1.076,0.228,1.981,0.685,2.715c0.457,0.734,1.435,1.411,2.935,2.03l5.429,2.348c1.336,0.587,2.429,1.198,3.277,1.834    c0.847,0.636,1.524,1.321,2.03,2.055c0.505,0.733,0.856,1.54,1.051,2.421c0.196,0.88,0.293,1.858,0.293,2.934    c0,3.685-1.068,6.367-3.203,8.046c-2.136,1.68-5.111,2.519-8.926,2.519c-3.979,0-6.823-0.864-8.535-2.592    c-1.712-1.728-2.568-4.206-2.568-7.434v-1.418h7.043V196.159z"
   id="path94" />
		<path
   style="fill:#1A171B;"
   d="M277.991,176.888h-7.63v29.151h-7.043v-29.151h-7.63v-5.771h22.303V176.888z"
   id="path95" />
		<path
   style="fill:#1A171B;"
   d="M281.365,171.117h7.043v34.922h-7.043V171.117z"
   id="path96" />
		<path
   style="fill:#1A171B;"
   d="M314.086,176.888h-7.63v29.151h-7.043v-29.151h-7.63v-5.771h22.303V176.888z"
   id="path97" />
		<path
   style="fill:#1A171B;"
   d="M323.722,195.474c0,0.88,0.057,1.687,0.171,2.421c0.114,0.734,0.325,1.37,0.636,1.908    c0.31,0.538,0.734,0.962,1.272,1.271c0.538,0.31,1.215,0.465,2.03,0.465c0.848,0,1.532-0.154,2.054-0.465    c0.522-0.309,0.937-0.733,1.247-1.271c0.31-0.538,0.522-1.174,0.636-1.908c0.114-0.734,0.171-1.541,0.171-2.421v-24.357h7.043    v24.357c0,2.218-0.31,4.052-0.929,5.502c-0.62,1.451-1.452,2.601-2.494,3.448c-1.044,0.848-2.234,1.418-3.571,1.712    c-1.337,0.294-2.723,0.44-4.157,0.44c-1.435,0-2.821-0.131-4.158-0.391c-1.337-0.26-2.527-0.79-3.57-1.589    c-1.044-0.799-1.876-1.932-2.494-3.399c-0.62-1.467-0.929-3.375-0.929-5.722v-24.357h7.043V195.474z"
   id="path98" />
		<path
   style="fill:#1A171B;"
   d="M363.877,176.888h-7.63v29.151h-7.043v-29.151h-7.63v-5.771h22.303V176.888z"
   id="path99" />
		<path
   style="fill:#1A171B;"
   d="M366.543,181.266c0.245-2.233,0.783-4.149,1.614-5.747c0.832-1.597,2.03-2.844,3.595-3.742    c1.566-0.896,3.669-1.345,6.31-1.345c2.641,0,4.745,0.449,6.31,1.345c1.565,0.897,2.764,2.145,3.595,3.742    c0.831,1.598,1.369,3.514,1.614,5.747c0.245,2.234,0.367,4.671,0.367,7.312c0,2.674-0.122,5.119-0.367,7.337    c-0.245,2.218-0.783,4.125-1.614,5.723c-0.831,1.598-2.03,2.821-3.595,3.668s-3.669,1.272-6.31,1.272    c-2.641,0-4.744-0.424-6.31-1.272c-1.565-0.848-2.763-2.07-3.595-3.668c-0.831-1.597-1.369-3.505-1.614-5.723    c-0.244-2.217-0.367-4.662-0.367-7.337C366.176,185.937,366.299,183.499,366.543,181.266z M373.39,194.569    c0.114,1.647,0.342,2.984,0.685,4.011c0.342,1.027,0.832,1.778,1.467,2.25c0.636,0.473,1.475,0.709,2.519,0.709    c1.043,0,1.883-0.236,2.519-0.709c0.636-0.472,1.125-1.223,1.467-2.25c0.342-1.027,0.57-2.364,0.685-4.011    c0.114-1.646,0.171-3.644,0.171-5.992c0-2.348-0.057-4.337-0.171-5.967c-0.115-1.63-0.342-2.966-0.685-4.011    c-0.342-1.043-0.831-1.801-1.467-2.274c-0.636-0.472-1.476-0.709-2.519-0.709c-1.044,0-1.883,0.237-2.519,0.709    c-0.635,0.473-1.125,1.231-1.467,2.274c-0.342,1.044-0.571,2.381-0.685,4.011c-0.115,1.631-0.171,3.62-0.171,5.967    C373.219,190.926,373.276,192.923,373.39,194.569z"
   id="path100" />
		<path
   style="fill:#1A171B;"
   d="M203.354,216.837c2.446,0,4.418,0.4,5.918,1.198c1.499,0.799,2.665,1.94,3.497,3.424    c0.832,1.484,1.394,3.269,1.687,5.356c0.294,2.087,0.44,4.419,0.44,6.994c0,3.065-0.188,5.731-0.562,7.997    c-0.375,2.267-1.019,4.133-1.932,5.6c-0.913,1.467-2.136,2.56-3.668,3.277c-1.533,0.717-3.473,1.076-5.82,1.076h-11.103v-34.922    H203.354z M201.985,246.575c1.239,0,2.233-0.212,2.984-0.636c0.75-0.423,1.345-1.125,1.785-2.103    c0.44-0.979,0.734-2.266,0.88-3.864c0.147-1.597,0.22-3.586,0.22-5.967c0-1.988-0.066-3.733-0.196-5.234    c-0.131-1.499-0.4-2.747-0.807-3.742c-0.408-0.994-1.011-1.744-1.81-2.25c-0.799-0.505-1.867-0.758-3.204-0.758h-2.984v24.553    H201.985z"
   id="path101" />
		<path
   style="fill:#1A171B;"
   d="M239.059,222.608h-12.472v8.217h11.739v5.772h-11.739v9.391h12.962v5.772h-20.005v-34.922h19.515    V222.608z"
   id="path102" />
		<path
   style="fill:#1A171B;"
   d="M255.148,216.837h7.044v34.922h-7.044V216.837z"
   id="path103" />
		<path
   style="fill:#1A171B;"
   d="M284.055,240.754h0.098v-23.917h6.456v34.922h-8.021l-8.608-24.456h-0.098v24.456h-6.456v-34.922    h8.119L284.055,240.754z"
   id="path104" />
		<path
   style="fill:#1A171B;"
   d="M310.785,225.201c-0.147-0.685-0.383-1.312-0.709-1.883c-0.326-0.57-0.742-1.042-1.247-1.418    c-0.506-0.374-1.117-0.563-1.834-0.563c-1.696,0-2.919,0.947-3.668,2.837c-0.751,1.891-1.125,5.021-1.125,9.39    c0,2.087,0.065,3.979,0.196,5.674c0.129,1.695,0.367,3.138,0.709,4.328c0.342,1.191,0.831,2.104,1.467,2.739    c0.635,0.636,1.459,0.954,2.47,0.954c0.423,0,0.888-0.114,1.394-0.342c0.505-0.228,0.979-0.57,1.418-1.028    c0.441-0.456,0.807-1.034,1.101-1.736c0.294-0.701,0.44-1.524,0.44-2.47v-3.57h-4.646v-5.184h11.396v18.831h-5.184v-3.228h-0.097    c-0.848,1.369-1.867,2.34-3.057,2.91c-1.191,0.57-2.617,0.856-4.28,0.856c-2.152,0-3.905-0.376-5.257-1.125    c-1.354-0.749-2.413-1.907-3.18-3.473c-0.766-1.565-1.28-3.497-1.54-5.795c-0.261-2.299-0.391-4.965-0.391-7.997    c0-2.934,0.188-5.51,0.563-7.728c0.374-2.217,1.019-4.067,1.932-5.551c0.913-1.483,2.119-2.599,3.62-3.35    c1.499-0.749,3.375-1.125,5.625-1.125c3.847,0,6.619,0.954,8.314,2.861c1.695,1.908,2.543,4.639,2.543,8.193h-6.749    C311.005,226.554,310.931,225.885,310.785,225.201z"
   id="path105" />
		<path
   style="fill:#1A171B;"
   d="M342.21,222.608h-12.473v8.217h11.739v5.772h-11.739v9.391h12.962v5.772h-20.005v-34.922h19.516    V222.608z"
   id="path106" />
		<path
   style="fill:#1A171B;"
   d="M362.85,240.754h0.097v-23.917h6.456v34.922h-8.021l-8.608-24.456h-0.098v24.456h-6.456v-34.922    h8.119L362.85,240.754z"
   id="path107" />
		<path
   style="fill:#1A171B;"
   d="M374.636,216.837h7.043v34.922h-7.043V216.837z"
   id="path108" />
		<path
   style="fill:#1A171B;"
   d="M406.428,222.608h-12.473v8.217h11.739v5.772h-11.739v9.391h12.962v5.772h-20.005v-34.922h19.516    V222.608z"
   id="path109" />
		<path
   style="fill:#1A171B;"
   d="M423.448,216.837c2.934,0,5.216,0.742,6.848,2.225c1.63,1.485,2.445,3.742,2.445,6.774    c0,2.348-0.473,4.264-1.418,5.747c-0.947,1.485-2.413,2.438-4.402,2.861v0.098c1.761,0.261,3.049,0.831,3.864,1.712    c0.815,0.88,1.321,2.299,1.516,4.255c0.066,0.653,0.114,1.362,0.147,2.128c0.032,0.766,0.065,1.622,0.097,2.567    c0.065,1.859,0.163,3.277,0.293,4.256c0.196,0.978,0.619,1.647,1.272,2.005v0.294h-7.63c-0.359-0.49-0.587-1.051-0.685-1.688    c-0.098-0.636-0.164-1.296-0.196-1.981l-0.196-6.7c-0.065-1.37-0.409-2.446-1.027-3.228c-0.62-0.783-1.663-1.174-3.131-1.174    h-3.766v14.771h-7.043v-34.922H423.448z M420.416,232.097c1.695,0,3-0.399,3.913-1.198c0.912-0.799,1.369-2.144,1.369-4.035    c0-3.228-1.63-4.842-4.891-4.842h-3.326v10.075H420.416z"
   id="path110" />
		<path
   style="fill:#1A171B;"
   d="M437.974,216.837h7.043v34.922h-7.043V216.837z M447.708,207.74l-4.793,7.043h-4.597l2.641-7.043    H447.708z"
   id="path111" />
		<path
   style="fill:#1A171B;"
   d="M465.756,216.837L475,251.759h-7.337l-1.614-7.386h-9.293l-1.614,7.386h-7.337l9.244-34.922    H465.756z M464.827,238.602l-3.375-15.7h-0.098l-3.375,15.7H464.827z"
   id="path112" />
	</g>
	<g
   id="g116">
		<path
   style="fill:#D10019;"
   d="M204.978,308.729c0,1.622,0.104,3.108,0.315,4.459c0.21,1.351,0.6,2.523,1.171,3.513    c0.57,0.99,1.351,1.772,2.342,2.342c0.991,0.572,2.236,0.856,3.738,0.856c1.561,0,2.822-0.284,3.783-0.856    c0.96-0.57,1.726-1.351,2.297-2.342c0.57-0.99,0.96-2.162,1.171-3.513c0.21-1.351,0.315-2.837,0.315-4.459V263.87h12.971v44.859    c0,4.085-0.572,7.462-1.712,10.134c-1.142,2.673-2.673,4.79-4.594,6.35c-1.923,1.563-4.114,2.613-6.576,3.153    c-2.463,0.541-5.015,0.81-7.657,0.81c-2.643,0-5.195-0.24-7.656-0.72c-2.463-0.48-4.655-1.456-6.576-2.927    c-1.922-1.47-3.454-3.559-4.594-6.26c-1.141-2.702-1.712-6.216-1.712-10.539V263.87h12.972V308.729z"
   id="path113" />
		<path
   style="fill:#D10019;"
   d="M271.907,307.918h0.18V263.87h11.89v64.317h-14.773l-15.854-45.039h-0.18v45.039h-11.89V263.87    h14.953L271.907,307.918z"
   id="path114" />
		<path
   style="fill:#D10019;"
   d="M321.54,263.87l17.025,64.317h-13.511l-2.973-13.602h-17.115l-2.972,13.602H288.48l17.025-64.317    H321.54z M319.828,303.955l-6.216-28.915h-0.18l-6.215,28.915H319.828z"
   id="path115" />
		<path
   style="fill:#D10019;"
   d="M362.615,263.87l9.189,45.4h0.18l9.278-45.4h19.187v64.317h-11.891v-51.345h-0.18l-11.44,51.345    h-10.089l-11.441-51.345h-0.18v51.345h-11.89V263.87H362.615z"
   id="path116" />
	</g>
	<g
   id="g120">
		<rect
   x="25"
   y="170.698"
   style="fill:#D10019;"
   width="158.87"
   height="158.87"
   id="rect116" />
		<g
   id="g119">
			<g
   id="g117">
				<path
   style="fill:#FFFFFF;"
   d="M99.993,214.414c0,17.961-14.56,32.521-32.52,32.521s-32.52-14.56-32.52-32.521      c0-17.96,14.56-32.52,32.52-32.52S99.993,196.454,99.993,214.414z"
   id="path117" />
				<rect
   x="35.663"
   y="253.687"
   style="fill:#FFFFFF;"
   width="64.685"
   height="64.686"
   id="rect117" />
			</g>
			<g
   id="g118">
				<path
   style="fill:#FFFFFF;"
   d="M173.563,214.414c0,17.961-14.56,32.521-32.52,32.521c-17.96,0-32.52-14.56-32.52-32.521      c0-17.96,14.56-32.52,32.52-32.52C159.003,181.894,173.563,196.454,173.563,214.414z"
   id="path118" />
				<rect
   x="109.233"
   y="253.687"
   style="fill:#FFFFFF;"
   width="64.685"
   height="64.686"
   id="rect118" />
			</g>
		</g>
	</g>
</g>
</svg>
